<?xml version="1.0" encoding="utf-8"?>
<!-- Generator: Adobe Illustrator 25.2.3, SVG Export Plug-In . SVG Version: 6.00 Build 0)  -->
<svg version="1.1" id="Layer_1" xmlns="http://www.w3.org/2000/svg" xmlns:xlink="http://www.w3.org/1999/xlink" x="0px" y="0px"
	 viewBox="0 0 345 395.7" style="enable-background:new 0 0 345 395.7;" xml:space="preserve">
<style type="text/css">
	.st0{fill:#FFFFFF;}
	.st1{clip-path:url(#SVGID_4_);}
	.st2{clip-path:url(#SVGID_6_);fill:#E25289;}
	.st3{clip-path:url(#SVGID_8_);fill:#E25289;}
	.st4{clip-path:url(#SVGID_10_);fill:#FCE31B;}
	.st5{clip-path:url(#SVGID_12_);fill:#E25289;}
	.st6{clip-path:url(#SVGID_14_);fill:#05647E;}
	.st7{clip-path:url(#SVGID_16_);fill:#05647E;}
	.st8{clip-path:url(#SVGID_18_);fill:#D5B1D3;}
	.st9{clip-path:url(#SVGID_20_);fill:#FCE31B;}
	.st10{clip-path:url(#SVGID_22_);fill:#E25289;}
	.st11{clip-path:url(#SVGID_24_);fill:#FCE31B;}
	.st12{clip-path:url(#SVGID_26_);fill:#FFFFFF;}
	.st13{clip-path:url(#SVGID_28_);fill:#05647E;}
	.st14{clip-path:url(#SVGID_30_);fill:#FFFFFF;}
	.st15{clip-path:url(#SVGID_32_);fill:#FFFFFF;}
	.st16{clip-path:url(#SVGID_34_);fill:#FCE31B;}
	.st17{clip-path:url(#SVGID_36_);fill:#FCE31B;}
	.st18{clip-path:url(#SVGID_38_);fill:#FCE31B;}
	.st19{clip-path:url(#SVGID_40_);fill:#FCE31B;}
	.st20{clip-path:url(#SVGID_42_);fill:#FCE31B;}
	.st21{clip-path:url(#SVGID_44_);fill:#849741;}
	.st22{clip-path:url(#SVGID_46_);fill:#849741;}
	.st23{clip-path:url(#SVGID_48_);fill:#849741;}
	.st24{clip-path:url(#SVGID_50_);fill:#05647E;}
	.st25{clip-path:url(#SVGID_52_);fill:#05647E;}
	.st26{clip-path:url(#SVGID_54_);fill:#05647E;}
	.st27{clip-path:url(#SVGID_56_);fill:#D5B1D3;}
	.st28{clip-path:url(#SVGID_58_);fill:#D5B1D3;}
	.st29{clip-path:url(#SVGID_60_);fill:#849741;}
	.st30{clip-path:url(#SVGID_62_);fill:#E25289;}
	.st31{clip-path:url(#SVGID_64_);fill:#FFFFFF;}
	.st32{display:none;}
	.st33{display:inline;}
	.st34{display:none;opacity:0.9;clip-path:url(#SVGID_66_);fill:#FFFFFF;enable-background:new    ;}
	.st35{opacity:0.875;clip-path:url(#SVGID_68_);fill:#FFFFFF;enable-background:new    ;}
	.st36{fill:none;stroke:#05647E;stroke-width:2;stroke-miterlimit:10;}
	.st37{fill:#05647E;}
	.st38{fill-rule:evenodd;clip-rule:evenodd;fill:#E25289;stroke:#E25289;stroke-miterlimit:10;}
	.st39{fill:#E25289;}
</style>
<g id="logo_1_">
	<g>
		<polygon id="SVGID_1_" class="st0" points="172.8,3.3 339.8,86.8 339.8,305.8 172.8,389.3 5.9,305.8 5.9,86.8 		"/>
	</g>
	<g>
		<g>
			<g>
				<defs>
					<polygon id="SVGID_3_" points="172.8,3.3 339.8,86.8 339.8,305.8 172.8,389.3 5.9,305.8 5.9,86.8 					"/>
				</defs>
				<clipPath id="SVGID_4_">
					<use xlink:href="#SVGID_3_"  style="overflow:visible;"/>
				</clipPath>
				<g id="logo" class="st1">
					<g>
						<g>
							<g>
								<defs>
									<rect id="SVGID_5_" x="3.9" y="14.4" width="337.3" height="386"/>
								</defs>
								<clipPath id="SVGID_6_">
									<use xlink:href="#SVGID_5_"  style="overflow:visible;"/>
								</clipPath>
								<path class="st2" d="M306.1,19.6"/>
							</g>
						</g>
					</g>
					<g>
						<g>
							<g>
								<defs>
									<rect id="SVGID_7_" x="3.9" y="14.4" width="337.3" height="386"/>
								</defs>
								<clipPath id="SVGID_8_">
									<use xlink:href="#SVGID_7_"  style="overflow:visible;"/>
								</clipPath>
								<path class="st3" d="M306.1,19.6c0.7,3.3,5.8,3.2,6.6,0"/>
							</g>
						</g>
					</g>
					<g>
						<g>
							<g>
								<defs>
									<rect id="SVGID_9_" x="3.9" y="14.4" width="337.3" height="386"/>
								</defs>
								<clipPath id="SVGID_10_">
									<use xlink:href="#SVGID_9_"  style="overflow:visible;"/>
								</clipPath>
								<path class="st4" d="M254.3,271.6c-26.4-12.8-106.2,18.5-135.2,26.2C93.7,304.6,49.7,329.2,3.9,328v62.1h266.3
									C269.8,344.1,276.1,282.1,254.3,271.6"/>
							</g>
						</g>
					</g>
					<g>
						<g>
							<g>
								<defs>
									<rect id="SVGID_11_" x="3.9" y="14.4" width="337.3" height="386"/>
								</defs>
								<clipPath id="SVGID_12_">
									<use xlink:href="#SVGID_11_"  style="overflow:visible;"/>
								</clipPath>
								<path class="st5" d="M222.7,266.2c-35.1-20.8-96.2-3.3-73.9,52c0,0-22.3,22.3-10.1,40.9c-10.7,4.2-23.1,14-33.5,31.1h8.1
									h35.2h94.8C257.4,344.2,253.4,284.4,222.7,266.2"/>
							</g>
						</g>
					</g>
					<g>
						<g>
							<g>
								<defs>
									<rect id="SVGID_13_" x="3.9" y="14.4" width="337.3" height="386"/>
								</defs>
								<clipPath id="SVGID_14_">
									<use xlink:href="#SVGID_13_"  style="overflow:visible;"/>
								</clipPath>
								<path class="st6" d="M272.7,380.7c0,0,15.5-4.4,12.7-16.9s-12.7-16.2-12.7-16.2s14-4.8,12.6-18.8
									c-1.4-13.9-17.7-20.3-17.7-20.3s14.8-11.1,12.4-24.9c-2.3-13.8-17.8-14.7-17.8-14.7c5.3-6.9,20.2-9.5-6.1-35.1
									c-20.6-20-23.3-0.7-30.7,4.4c-7.4,5.1,0,27.5,0,27.5l-5,32.7C219.8,317.6,233,320,233,320s-18.6,4.4-18.6,23.2
									c0,12.7,18.9,17.1,18.9,17.1s-20.3,8-16.7,25.9c0.3,1.4,0.6,2.7,1.1,3.9h66.8C281,382.8,272.7,380.7,272.7,380.7"/>
							</g>
						</g>
					</g>
					<g>
						<g>
							<g>
								<defs>
									<rect id="SVGID_15_" x="3.9" y="14.4" width="337.3" height="386"/>
								</defs>
								<clipPath id="SVGID_16_">
									<use xlink:href="#SVGID_15_"  style="overflow:visible;"/>
								</clipPath>
								<path class="st7" d="M15.6,352c0,0,7.6,30.7,27.7,1.2c0,0,2.9,13.7,18.8,11.1c20.4-3.4,18.7-16.7,18.7-16.7
									s5.2,14,20.5,10.9c20.8-4.1,15-22.8,15-22.8s12.8,15.9,27.4,7.5c16.1-9.3,8-21.4,5.4-24.6c-0.4-0.5-0.7-0.8-0.7-0.8
									s0.3,0.3,0.7,0.8c2.7,3,13.4,13.5,26.3,6.6c15-8,4.4-23.4,4.4-23.4s15.6,11.1,26.2,6.3c10.6-4.8,4.4-22.3,4.4-22.3
									s12.9,13.4,27-5.9s0-34.3,0-34.3s20.8,6.6,27.9-12.4c7.2-19-21.1-56.5-47.1-37.7c0,0-30.3-0.6-18,21.5
									c0,0-12.6-0.7-20.5,7.7c-7.8,8.4-2.6,21-2.6,21s-15.3-7.7-24.2-0.5c-8.9,7.1-3.2,23.2-3.2,23.2s-13-11-24.7-4.8
									s-7.4,22.3-7.4,22.3s-9.8-14.6-23.5-8.4c-16,7.3-15.7,20.5-15.3,23.7c0.1,0.5,0.1,0.7,0.1,0.7s0-0.3-0.1-0.7
									c-0.5-3.1-3.7-15.3-21.1-15.3c-12.6,0-16.4,7.7-17.6,13.1c0.2,2.8-0.5,4.9-0.5,4.9s-0.1-2.1,0.5-4.9
									c-0.3-4.8-3.2-11.7-16.8-13.1C14.1,285,8,287.1,4,289.7v74.1C13,361.1,15.6,352,15.6,352"/>
							</g>
						</g>
					</g>
					<g>
						<g>
							<g>
								<defs>
									<rect id="SVGID_17_" x="3.9" y="14.4" width="337.3" height="386"/>
								</defs>
								<clipPath id="SVGID_18_">
									<use xlink:href="#SVGID_17_"  style="overflow:visible;"/>
								</clipPath>
								<path class="st8" d="M32.8,248.1c3.3,0.2,6.6,0.4,9.8,0.6c9.2,0.2,18.2-0.9,27.2-2.3c1.6-1,3.4-1.6,5.4-1.6
									c0.1,0,0.2,0,0.3,0c0.1,0,0.1,0,0.1,0c0.5-0.1,1.1-0.3,1.6-0.5c1.3-0.5,2.6-1,4-1.4c0.9-0.3,1.8-0.5,2.7-0.6
									c10.5-12.8,15.4-30.5,15.4-46.9c0-18.9-8.1-33.3-19.3-43c-13.1-2-26.3-4-39.6-3.8c-10.1,0.2-19.9,1.6-29.8,3.7
									c-2,0.4-4.4,0.7-6.8,1v91c2.9,0.1,5.7,0.3,8.5,0.8C19.2,246.4,25.9,247.6,32.8,248.1"/>
							</g>
						</g>
					</g>
					<g>
						<g>
							<g>
								<defs>
									<rect id="SVGID_19_" x="3.9" y="14.4" width="337.3" height="386"/>
								</defs>
								<clipPath id="SVGID_20_">
									<use xlink:href="#SVGID_19_"  style="overflow:visible;"/>
								</clipPath>
								<path class="st9" d="M12,210.3c0.7,1.9-6.3,6.8-6.3,6.8s7-2.8,8.3-1c1.6,2.2-9.8,9.2-9.8,9.2s9.9-4.8,11.5-2.6
									c1.5,2.2-7,13.6-7,13.6s8.3-9.6,11.1-9.1s0.8,9.1,0.8,9.1s3.4-9.2,6.3-8.1c2.5,1,0,11.3,0,11.3s4.9-9.2,6.9-9
									c4.3,0.5,4.3,11,4.3,11s1.1-11.6,3.7-11.8c2.3-0.3,3.2,7.7,3.2,7.7s0.2-7.7,2.6-8.2c2.7-0.6,7.3,11.2,7.3,11.2
									s-4-12-2.3-13.3c1.8-1.2,10.3,13.3,10.3,13.3s-5-13-3.1-16s14.8,8.1,14.8,8.1s-9.1-9.9-7.7-13.7c1.1-3.1,6.3-1.2,8.2-0.3
									c-2.1-1-7.8-4-6.3-6.5c1.8-3,11.1,0,11.1,0s-9-4.9-8.3-7.3c0.8-2.8,14.6-2.1,14.6-2.1s-11.5-2.9-11.5-5
									c0-5,11.5-5.6,11.5-5.6s-9.9-0.6-11.1-4.1c-0.6-2,7.6-6.4,7.6-6.4S72,184,71,181.5c-1.4-3.6,7.6-16.1,7.6-16.1
									s-7.7,8-11.7,6.6c-3.9-1.3,1.1-15.7,1.1-15.7s-6.5,13.1-9.8,11.3s-1.5-7.1-1-11.3c0,0-5.6,11.3-9.6,9.3s-4-12.9-4-12.9
									s-2.3,11.7-5.4,12.5c-3.1,0.8-5.2-7.5-5.2-7.5s0.8,10-2.3,10.5c-3,0.5-9.3-10.5-9.3-10.5s4,10.5,2.3,12.5
									c-1.8,2-7.6-2.8-7.6-2.8s3.3,5.3,1,7.1s-12.3-4.3-12.3-4.3s9.1,9.6,7.3,11.6c-1.1,1.2-5.2-0.1-8.1-1.3v1.6
									c1.8,1.9,3.7,4.1,3.4,5.1c-0.2,0.7-1.7,1.1-3.4,1.5v2.7c1.7,0.6,3.1,1.3,3.1,1.8c-0.1,0.7-1.4,1.5-3.1,2.2v4.6
									c2.9,0.6,5.3,1.5,5.3,2.7c0.1,1.8-2.4,3.7-5.3,5.3v2.2C7.9,209.6,11.6,209.3,12,210.3"/>
							</g>
						</g>
					</g>
					<g>
						<g>
							<g>
								<defs>
									<rect id="SVGID_21_" x="3.9" y="14.4" width="337.3" height="386"/>
								</defs>
								<clipPath id="SVGID_22_">
									<use xlink:href="#SVGID_21_"  style="overflow:visible;"/>
								</clipPath>
								<path class="st10" d="M237.3,19.2c4.2,7.6,7.9,15.3,12.2,22.6c-13.4,23.9-10.7,58.9-10.7,58.9c7.4,62.8,43,69.4,43,69.4
									c2.9,28.4-35,76.3-35,76.3c5.3,18.9,27.4,43.8,61.6,55.3c0.3,13.8,1.1,49.4,1.5,88.4h31.2V60.6
									C330.7,38.3,308.2,20.5,286,20"/>
							</g>
						</g>
					</g>
					<g>
						<g>
							<g>
								<defs>
									<rect id="SVGID_23_" x="3.9" y="14.4" width="337.3" height="386"/>
								</defs>
								<clipPath id="SVGID_24_">
									<use xlink:href="#SVGID_23_"  style="overflow:visible;"/>
								</clipPath>
								<path class="st11" d="M138.8,8.6c0,0,11.3,28.6,23.2,43.6s16.1,38.9,6,53s-37.4,16.7-47.7,5.5s-19.8-28.3-10-47.7
									C120.2,43.6,135.9,28.2,138.8,8.6"/>
							</g>
						</g>
					</g>
					<g>
						<g>
							<g>
								<defs>
									<rect id="SVGID_25_" x="3.9" y="14.4" width="337.3" height="386"/>
								</defs>
								<clipPath id="SVGID_26_">
									<use xlink:href="#SVGID_25_"  style="overflow:visible;"/>
								</clipPath>
								<path class="st12" d="M150,70.1c-7.8,3.9-7.8,16.6-2.2,19.2c7,3.2,17.4-2.1,17.9-8.6C166.4,70.1,158.9,65.7,150,70.1"/>
							</g>
						</g>
					</g>
					<g>
						<g>
							<g>
								<defs>
									<rect id="SVGID_27_" x="3.9" y="14.4" width="337.3" height="386"/>
								</defs>
								<clipPath id="SVGID_28_">
									<use xlink:href="#SVGID_27_"  style="overflow:visible;"/>
								</clipPath>
								<path class="st13" d="M52,171.6c-13.7-4.8-33.9,1.9-38.4,19.2c-3.7,14.5,3.9,30.1,25,32.3c17,1.8,26.7-12,29.5-23
									C70.9,189.1,65.5,176.3,52,171.6"/>
							</g>
						</g>
					</g>
					<g>
						<g>
							<g>
								<defs>
									<rect id="SVGID_29_" x="3.9" y="14.4" width="337.3" height="386"/>
								</defs>
								<clipPath id="SVGID_30_">
									<use xlink:href="#SVGID_29_"  style="overflow:visible;"/>
								</clipPath>
								<path class="st14" d="M66.9,156.7c-6.9,1.7-13.3,9.9-10.5,18.2c2.4,6.9,9.7,11.2,18.9,6.4c7.4-3.9,7.7-12.1,5.8-17.4
									C79.4,158.8,73.7,155,66.9,156.7"/>
							</g>
						</g>
					</g>
					<g>
						<g>
							<g>
								<defs>
									<rect id="SVGID_31_" x="3.9" y="14.4" width="337.3" height="386"/>
								</defs>
								<clipPath id="SVGID_32_">
									<use xlink:href="#SVGID_31_"  style="overflow:visible;"/>
								</clipPath>
								<path class="st15" d="M90.1,171.8c-3.9,1-7.5,5.6-5.9,10.2c1.3,3.9,5.4,6.3,10.6,3.6c4.2-2.2,4.3-6.8,3.3-9.7
									C97,173,93.9,170.9,90.1,171.8"/>
							</g>
						</g>
					</g>
					<g>
						<g>
							<g>
								<defs>
									<rect id="SVGID_33_" x="3.9" y="14.4" width="337.3" height="386"/>
								</defs>
								<clipPath id="SVGID_34_">
									<use xlink:href="#SVGID_33_"  style="overflow:visible;"/>
								</clipPath>
								<path class="st16" d="M332.8,289.6c-6.7-6.1-12.8-12.7-18.6-19.7c-7.2-8.6-9.8-18.3-11.6-29.2c-1.9-11.4-5.9-22.4-10.4-33
									c-3.9-9.2-8.3-21-16.1-27.6c-1.5-1.3-3.6,0.2-3.1,2c2.9,11.8,11.3,22.5,15.9,33.9c4.6,11.4,6.8,22.9,9.2,34.9
									c4.1,20.1,19.5,27.7,34.6,38.7C332.8,289.8,332.9,289.7,332.8,289.6"/>
							</g>
						</g>
					</g>
					<g>
						<g>
							<g>
								<defs>
									<rect id="SVGID_35_" x="3.9" y="14.4" width="337.3" height="386"/>
								</defs>
								<clipPath id="SVGID_36_">
									<use xlink:href="#SVGID_35_"  style="overflow:visible;"/>
								</clipPath>
								<path class="st17" d="M320,233.8c-1.2-9.7-4.1-21.2-12-27.9c-3.6-3.1-7.4-5.3-11.7-7.3c-5.2-2.4-10.1-5.6-15.4-7.7
									c-1.8-0.7-3.4,1-2.4,2.7c3.5,6.1,11.9,7.9,17.9,10.5c11.3,4.8,20.7,17.8,23.3,29.8C319.7,234,320,233.9,320,233.8"/>
							</g>
						</g>
					</g>
					<g>
						<g>
							<g>
								<defs>
									<rect id="SVGID_37_" x="3.9" y="14.4" width="337.3" height="386"/>
								</defs>
								<clipPath id="SVGID_38_">
									<use xlink:href="#SVGID_37_"  style="overflow:visible;"/>
								</clipPath>
								<path class="st18" d="M294.5,220c0.4,12.5,10.3,21,17.4,30.3c3.9,5.1,4.9,11.2,9.4,16c3.8,4.1,12.9,2.9,17.5,3.9
									c0.7,0.2,1.1-0.9,0.4-1.2c-5.9-3.4-12.7-0.9-17.7-6.9c-3.2-3.9-2.3-10.5-5.1-14.8c-6.5-9.9-16.8-16.2-21.5-27.4
									C294.8,219.7,294.5,219.8,294.5,220"/>
							</g>
						</g>
					</g>
					<g>
						<g>
							<g>
								<defs>
									<rect id="SVGID_39_" x="3.9" y="14.4" width="337.3" height="386"/>
								</defs>
								<clipPath id="SVGID_40_">
									<use xlink:href="#SVGID_39_"  style="overflow:visible;"/>
								</clipPath>
								<path class="st19" d="M301.1,256.5c-0.5,13.4-2.9,24.7,9,33.8c5.2,4,11,6.6,16,11c3.2,2.8,6.6,5.4,10.9,5.2
									c0.7,0,0.9-1,0.3-1.3c-7.2-3.1-12.1-10-19-14.1c-4.8-2.8-9-5.4-12.1-10.1c-4.8-7.1-1.7-16.8-2-24.7
									C304.1,254.3,301.2,254.6,301.1,256.5"/>
							</g>
						</g>
					</g>
					<g>
						<g>
							<g>
								<defs>
									<rect id="SVGID_41_" x="3.9" y="14.4" width="337.3" height="386"/>
								</defs>
								<clipPath id="SVGID_42_">
									<use xlink:href="#SVGID_41_"  style="overflow:visible;"/>
								</clipPath>
								<path class="st20" d="M284.8,266.7c1.6-9-1.4-18-0.3-27.2c1-8.9,4.3-17.4,4.6-26.4c0.1-1.6-2.3-1.6-2.7-0.2
									c-2.6,9.4-4.9,19.4-5.7,29.1c-0.7,8.1,2.1,16.9,4,24.7C284.7,266.7,284.8,266.7,284.8,266.7"/>
							</g>
						</g>
					</g>
					<g>
						<g>
							<g>
								<defs>
									<rect id="SVGID_43_" x="3.9" y="14.4" width="337.3" height="386"/>
								</defs>
								<clipPath id="SVGID_44_">
									<use xlink:href="#SVGID_43_"  style="overflow:visible;"/>
								</clipPath>
								<path class="st21" d="M341.1-22.3c-2.5,1.9-8,5.9-11.4,9C309.1,5.4,286.8,26.4,274.5,64c-9.5,29.1,8,70.8,9.8,71.1
									c46.3,8.2,29.3-32.1,26.5-47.9c-4.1-23.4,12.6-52.7,30.3-72.9v-33.7L341.1-22.3z"/>
							</g>
						</g>
					</g>
					<g>
						<g>
							<g>
								<defs>
									<rect id="SVGID_45_" x="3.9" y="14.4" width="337.3" height="386"/>
								</defs>
								<clipPath id="SVGID_46_">
									<use xlink:href="#SVGID_45_"  style="overflow:visible;"/>
								</clipPath>
								<path class="st22" d="M116.8,148.9c47.8,22.1,54.9,39.2,54.9,39.2s-6.2-40.4-63.4-62c-50.3-19-81-14.5-104.3-6.9v20.4
									C32.3,132.6,75.6,129.9,116.8,148.9"/>
							</g>
						</g>
					</g>
					<g>
						<g>
							<g>
								<defs>
									<rect id="SVGID_47_" x="3.9" y="14.4" width="337.3" height="386"/>
								</defs>
								<clipPath id="SVGID_48_">
									<use xlink:href="#SVGID_47_"  style="overflow:visible;"/>
								</clipPath>
								<path class="st23" d="M95.1,242.1c38.9-14.4,73.7-42,72.1-43.2c-1.5-1.2-28.3-42.3-98.2-52.5c-24.8-3.6-46.6-0.8-65.1,4.8
									v6.4c18.4-5.9,40.6-9.2,65.4-5.6c62.1,9.1,90,45.6,91.3,46.6c1.3,1.1-37.6,27.6-72.2,40.4c-19.7,7.3-54.9,6.6-84.6,1.8v6
									C35,251.8,71.7,250.8,95.1,242.1"/>
							</g>
						</g>
					</g>
					<g>
						<g>
							<g>
								<defs>
									<rect id="SVGID_49_" x="3.9" y="14.4" width="337.3" height="386"/>
								</defs>
								<clipPath id="SVGID_50_">
									<use xlink:href="#SVGID_49_"  style="overflow:visible;"/>
								</clipPath>
								<path class="st24" d="M39.5,303.7c0,0,0.7-2.1,0.5-4.9C39.4,301.6,39.5,303.7,39.5,303.7"/>
							</g>
						</g>
					</g>
					<g>
						<g>
							<g>
								<defs>
									<rect id="SVGID_51_" x="3.9" y="14.4" width="337.3" height="386"/>
								</defs>
								<clipPath id="SVGID_52_">
									<use xlink:href="#SVGID_51_"  style="overflow:visible;"/>
								</clipPath>
								<path class="st25" d="M149.1,318.6c-0.4-0.5-0.7-0.8-0.7-0.8S148.6,318.1,149.1,318.6"/>
							</g>
						</g>
					</g>
					<g>
						<g>
							<g>
								<defs>
									<rect id="SVGID_53_" x="3.9" y="14.4" width="337.3" height="386"/>
								</defs>
								<clipPath id="SVGID_54_">
									<use xlink:href="#SVGID_53_"  style="overflow:visible;"/>
								</clipPath>
								<path class="st26" d="M78.8,301.1c0,0.5,0.1,0.7,0.1,0.7S78.9,301.6,78.8,301.1"/>
							</g>
						</g>
					</g>
					<g>
						<g>
							<g>
								<defs>
									<rect id="SVGID_55_" x="3.9" y="14.4" width="337.3" height="386"/>
								</defs>
								<clipPath id="SVGID_56_">
									<use xlink:href="#SVGID_55_"  style="overflow:visible;"/>
								</clipPath>
								<path class="st27" d="M73.6,320.7c33.4-4.5,69.7-15.5,96.3-37c14.4-11.6,24.5-25.3,36-39.6c5.4-6.7,11.8-12.3,19-17
									c14.7-9.7,24.9-2.6,35.4,8.3c1.7,1.8,4.1-0.5,3.2-2.5c-12.3-26.1-38.6-12-53.8,2.6c-12.7,12.2-22.5,26.6-36,38.2
									c-15.8,13.5-35.4,22.8-54.8,29.7c-36.7,12.9-76.2,15.9-114.9,13v6.5C27.1,324.4,50.4,323.8,73.6,320.7"/>
							</g>
						</g>
					</g>
					<g>
						<g>
							<g>
								<defs>
									<rect id="SVGID_57_" x="3.9" y="14.4" width="337.3" height="386"/>
								</defs>
								<clipPath id="SVGID_58_">
									<use xlink:href="#SVGID_57_"  style="overflow:visible;"/>
								</clipPath>
								<path class="st28" d="M229.1,274.7c-3,0.7-3,5.3,0,6c15.4,3.8,12.9,48.2,13.4,59.9c0.6,16.5,0.6,33,0.4,49.5h8.9
									C253.4,347.2,253.7,268.6,229.1,274.7"/>
							</g>
						</g>
					</g>
					<g>
						<g>
							<g>
								<defs>
									<rect id="SVGID_59_" x="3.9" y="14.4" width="337.3" height="386"/>
								</defs>
								<clipPath id="SVGID_60_">
									<use xlink:href="#SVGID_59_"  style="overflow:visible;"/>
								</clipPath>
								<path class="st29" d="M57.7,72.2c5.8,10.2,11,22.5,22.8,27.3c11.1,4.5,22.6,4.2,33.4-1c20.4-10,24.5-37,43.3-47.4
									c24.2-13.4,45.1,4.2,56.1,29.4c0.5,1.9,1.1,3.8,1.8,5.8c6.4,19.4,0.4,60.3,0.4,60.3c-18.3,25.9-4,63.6,12.9,87.7
									c28.4,40.5,47.1,40.4,45.9-3.5c-1.2-43.7,12.5-37.6,20.6-60.6c10-28.1-5.3-46.7-30.5-40.7c-26.1,6.2-16.5-25.8-26.2-44.6
									c-6.7-13-12.1-21.6-16.3-26.7c-19.6-29.9-60.6-45.5-87.4-10.7c-12.8,16.7-28.7,64.9-56.8,36c-10-10.4-12.4-25.4-24.3-34.8
									c-10.8-8.5-27.8-9.2-39.9-3.5C10.1,46.8,7,48.7,4,50.8v23.1C22.3,56.3,41.3,43.5,57.7,72.2"/>
							</g>
						</g>
					</g>
					<g>
						<g>
							<g>
								<defs>
									<rect id="SVGID_61_" x="3.9" y="14.4" width="337.3" height="386"/>
								</defs>
								<clipPath id="SVGID_62_">
									<use xlink:href="#SVGID_61_"  style="overflow:visible;"/>
								</clipPath>
								<path class="st30" d="M203.5,123.9c0,0,6.8,17.1,13.8,26c7.1,8.9,9.6,23.2,3.6,31.6c-6,8.4-22.3,10-28.4,3.3
									c-6.1-6.7-11.8-16.8-5.9-28.4C192.4,144.7,201.8,135.5,203.5,123.9"/>
							</g>
						</g>
					</g>
					<g>
						<g>
							<g>
								<defs>
									<rect id="SVGID_63_" x="3.9" y="14.4" width="337.3" height="386"/>
								</defs>
								<clipPath id="SVGID_64_">
									<use xlink:href="#SVGID_63_"  style="overflow:visible;"/>
								</clipPath>
								<path class="st31" d="M212.5,158.1c-3.7,0-6.1,5-4.4,7c2.1,2.5,7.1,2.4,8.5,0C218.8,161.2,216.8,158.1,212.5,158.1"/>
							</g>
						</g>
					</g>
				</g>
			</g>
		</g>
	</g>
	<g class="st32">
		<g>
			<g class="st33">
				<defs>
					<polygon id="SVGID_65_" points="172.8,3.3 339.8,86.8 339.8,305.8 172.8,389.3 5.9,305.8 5.9,86.8 					"/>
				</defs>
				<clipPath id="SVGID_66_">
					<use xlink:href="#SVGID_65_"  style="display:none;overflow:visible;"/>
				</clipPath>
				<rect id="lower_opac" x="-0.6" y="281.2" class="st34" width="356" height="124.3"/>
			</g>
		</g>
	</g>
	<g>
		<g>
			<g>
				<defs>
					<polygon id="SVGID_67_" points="172.8,3.3 339.8,86.8 339.8,305.8 172.8,389.3 5.9,305.8 5.9,86.8 					"/>
				</defs>
				<clipPath id="SVGID_68_">
					<use xlink:href="#SVGID_67_"  style="overflow:visible;"/>
				</clipPath>
				<rect id="upper_opac" x="4" y="3.3" class="st35" width="337.2" height="386.9"/>
			</g>
		</g>
	</g>
	<g>
		<polygon id="SVGID_2_" class="st36" points="172.8,3.3 339.8,86.8 339.8,305.8 172.8,389.3 5.9,305.8 5.9,86.8 		"/>
	</g>
</g>
<g id="Certe">
	<path class="st37" d="M104.5,114.3c5.2,0,9.7,2.5,12.6,5.5l-6,6.7c-2-1.8-3.8-2.8-6.5-2.8c-5,0-9.2,4.5-9.2,12
		c0,7.8,3.6,12.1,8.9,12.1c3.2,0,5.5-1.4,7.2-3.3l6,6.6c-3.5,4.1-8.3,6.1-13.3,6.1c-10.8,0-20-7-20-21.1
		C84.3,122.2,93.8,114.3,104.5,114.3"/>
	<polygon class="st37" points="123.3,115 150,115 150,124.2 134.2,124.2 134.2,130.7 147.7,130.7 147.7,139.8 134.2,139.8 
		134.2,147.2 150.6,147.2 150.6,156.4 123.3,156.4 	"/>
	<path class="st37" d="M180.8,156.4l-7.1-13.9h-4.2v13.9h-10.9V115h15.6c8.9,0,16.5,3.1,16.5,13.4c0,5.9-2.7,9.8-6.7,12l9,16H180.8z
		 M169.5,133.9h3.9c4.3,0,6.6-1.9,6.6-5.5c0-3.6-2.3-4.7-6.6-4.7h-3.9V133.9z"/>
	<polygon class="st37" points="205.3,124.2 194.4,124.2 194.4,115 227.2,115 227.2,124.2 216.2,124.2 216.2,156.4 205.3,156.4 	"/>
	<polygon class="st37" points="233.3,115 260.8,115 260.8,124.2 244.2,124.2 244.2,130.7 257.7,130.7 257.7,139.8 244.2,139.8 
		244.2,147.2 260.8,147.2 260.8,156.4 233.3,156.4 	"/>
</g>
<polygon class="st38" points="136.1,181.8 138.1,181.8 138.1,248.5 71.3,248.5 71.3,246.6 136.1,246.6 "/>
<path class="st38" d="M128.3,238.6h-7.8v-34.3h7.8V238.6z M130.3,240.6v-38.2h-11.7v38.2H130.3z"/>
<path class="st38" d="M112.6,238.6h-7.8v-54.9h7.8V238.6z M114.6,240.6v-58.9h-11.7v58.9H114.6z"/>
<path class="st38" d="M96.8,238.6H89v-34.3h7.8V238.6z M98.7,240.6v-38.2H87.1v38.2H98.7z"/>
<path class="st38" d="M81.1,238.6h-7.8V221h7.8V238.6z M83,219H71.3v21.6H83V219z"/>
<g>
	<path class="st39" d="M170.4,221.2c0,2.8-0.6,5.2-1.8,7.2c-1.2,1.9-2.9,3.5-5.1,4.7c-1.8,1-3.9,1.7-6.1,2.1s-4.4,0.6-6.3,0.6
		l0.1,12.5h-4.4c0-0.4,0-2.8,0.1-7.6c0-4.7,0-9.5,0-14.2c0-2.4,0-5.1,0-8.3c0-3.2,0-6.6-0.1-10.2c0.6,0,1.2,0,1.7,0c0.6,0,1,0,1.3,0
		c3.8,0,6.8,0.2,8.9,0.6c2.1,0.4,4,1.1,5.7,2.2c1.8,1.1,3.3,2.6,4.4,4.3C169.7,216.8,170.4,218.9,170.4,221.2z M166,221.3
		c0-1.8-0.4-3.4-1.2-4.7c-0.9-1.3-1.9-2.4-3.3-3.2c-1.2-0.7-2.6-1.2-4.1-1.5c-1.6-0.4-3.3-0.5-5.1-0.5c-0.2,0-0.4,0-0.6,0
		c-0.2,0-0.4,0-0.6,0c0,0.4,0,1.3,0,3.3c0,1.8,0,5,0,9.6c0,1,0,2.3,0,4s0,3,0,4.1c1.7,0,3.4-0.1,5.1-0.5c1.7-0.4,3.2-0.7,4.3-1.3
		c1.8-0.9,3.3-2.1,4.3-3.7S166,223.7,166,221.3z"/>
	<path class="st39" d="M182.3,236H178c0-0.2,0-2.9,0.1-8c0-5.1,0-9.4,0-12.8c0-2.2,0-4.9,0-8.3c0-3.3,0-7.1-0.1-11.2h4.3
		c0,2.8-0.1,6.1-0.1,9.7c0,3.7,0,6.8,0,9.4c0,5.5,0,10.4,0,14.5C182.2,233.4,182.3,235.7,182.3,236z"/>
	<path class="st39" d="M217,222.1c0,2.1-0.4,4.1-1.1,6.1c-0.7,1.9-1.8,3.5-3.3,5c-1.2,1.1-2.6,2.1-4,2.7c-1.5,0.6-3.2,0.9-5,0.9
		c-1.7,0-3.4-0.2-4.9-0.9c-1.6-0.6-2.9-1.5-4.1-2.6c-1.3-1.3-2.4-2.9-3.2-4.9c-0.7-1.9-1.1-4-1.1-6.2c0-2.1,0.4-4,1-5.8
		c0.6-1.7,1.7-3.3,3-4.7c1.2-1.2,2.7-2.3,4.3-2.9c1.6-0.7,3.3-1,5.1-1c1.9,0,3.7,0.4,5.1,1c1.6,0.6,2.9,1.6,4.1,2.8
		c1.3,1.5,2.4,3,3,4.9C216.6,217.9,217,220,217,222.1z M212.6,222.3c0-1.7-0.2-3.4-0.9-5c-0.6-1.6-1.5-3-2.6-4.1
		c-0.7-0.7-1.6-1.2-2.6-1.6c-1-0.4-1.9-0.6-3-0.6c-1.2,0-2.3,0.2-3.3,0.6c-1,0.4-1.8,1-2.7,1.8c-1,1-1.7,2.2-2.3,3.8
		c-0.6,1.6-0.9,3.2-0.9,4.7c0,1.8,0.2,3.5,0.9,5.1c0.6,1.6,1.5,2.9,2.7,4c0.7,0.6,1.6,1.1,2.4,1.5c1,0.4,1.9,0.5,2.9,0.5
		c1.1,0,2.2-0.2,3.2-0.6c1-0.4,1.8-1,2.6-1.7c1.1-1.1,1.8-2.3,2.4-3.8C212.1,225.5,212.6,223.9,212.6,222.3z"/>
	<path class="st39" d="M239.5,232.5l-0.5,3.5c-0.1,0-0.5,0-1,0c-0.5,0-1,0-1.3,0c-3.8,0-6.6-0.7-8.5-2.3c-1.9-1.6-2.9-3.9-2.9-7.2
		c0-2.1,0-4.1,0-6.5c0-2.3,0-5.2,0-8.6h-4.6v-3.2h4.9v-6.5h4v6.5h9.7v3.2h-9.7c0,0.4,0,1.5,0,3.4c0,1.9,0,3.3,0,4.3
		c0,0.7,0,1.7,0,2.8s0,2.4,0,4c0,2.3,0.6,4.1,1.9,5.1c1.2,1.1,3.3,1.6,6,1.6c0.4,0,0.7,0,1.2,0C239.2,232.5,239.4,232.5,239.5,232.5
		z"/>
	<path class="st39" d="M269.5,235.8c-0.2,0-1.9,0-5.1,0c-3.2,0-5.5,0-7.1,0c-2.2,0-4.7,0-7.8,0c-3,0-4.6,0-4.7,0l-1.1-3
		c1.6-0.7,3.3-1.7,5.4-2.8s3.7-2.2,4.7-3c1.8-1.3,3.2-2.7,4.1-3.9s1.5-2.7,1.5-4.5c0-1.3-0.2-2.4-0.9-3.4c-0.6-1-1.5-1.7-2.6-2.2
		c-1-0.5-2.1-0.9-3.4-1.1c-1.2-0.2-2.6-0.4-4-0.4c-0.5,0-1.1,0-1.7,0c-0.6,0-1.2,0-1.6,0.1l0.4-3.7c0.4,0,0.7,0,1.3-0.1
		c0.6,0,1.2,0,1.9,0c1.9,0,3.8,0.1,5.4,0.4s3,0.7,4.3,1.3c1.7,0.9,2.9,1.9,3.9,3.3c1,1.3,1.3,3,1.3,5c0,1.6-0.4,3.2-1.1,4.6
		c-0.7,1.5-1.7,2.7-2.8,3.8s-2.6,2.2-4.1,3.3c-1.7,1.1-3.3,1.9-4.9,2.8v0.1c0.7-0.1,1.7-0.1,2.9-0.2c1.2-0.1,2.3-0.1,3.5-0.1
		c2.3,0,4.9-0.1,7.6-0.1c2.8,0,4.3,0,4.5,0v3.9H269.5z"/>
</g>
</svg>
