<?xml version="1.0" encoding="utf-8"?>
<!-- Generator: Adobe Illustrator 25.2.3, SVG Export Plug-In . SVG Version: 6.00 Build 0)  -->
<svg version="1.1" id="Layer_1" xmlns="http://www.w3.org/2000/svg" xmlns:xlink="http://www.w3.org/1999/xlink" x="0px" y="0px"
	 viewBox="0 0 198.4 198.4" style="enable-background:new 0 0 198.4 198.4;" xml:space="preserve">
<style type="text/css">
	.st0{clip-path:url(#SVGID_2_);fill:#FAE31A;}
	.st1{clip-path:url(#SVGID_4_);fill:#E3528A;}
	.st2{clip-path:url(#SVGID_4_);fill:#056680;}
	.st3{clip-path:url(#SVGID_4_);fill:#D6B0D4;}
	.st4{clip-path:url(#SVGID_6_);fill:#FAE31A;}
	.st5{clip-path:url(#SVGID_6_);fill:#E3528A;}
	.st6{clip-path:url(#SVGID_8_);fill:#FAE31A;}
	.st7{clip-path:url(#SVGID_8_);fill:#FFFFFF;}
	.st8{clip-path:url(#SVGID_8_);fill:#056680;}
	.st9{clip-path:url(#SVGID_10_);fill:#FAE31A;}
	.st10{clip-path:url(#SVGID_10_);fill:#859640;}
	.st11{fill:#859640;}
	.st12{fill:#056680;}
	.st13{clip-path:url(#SVGID_12_);fill:#056680;}
	.st14{clip-path:url(#SVGID_12_);fill:#D6B0D4;}
	.st15{clip-path:url(#SVGID_14_);fill:#D6B0D4;}
	.st16{clip-path:url(#SVGID_14_);fill:#859640;}
	.st17{clip-path:url(#SVGID_14_);fill:#E3528A;}
	.st18{clip-path:url(#SVGID_14_);fill:#FFFFFF;}
	.st19{fill:none;stroke:#01617E;stroke-width:2;stroke-miterlimit:10;}
	.st20{fill:#FFFFFF;stroke:#056680;stroke-width:0.75;stroke-miterlimit:10;}
	.st21{fill:#FFFFFF;stroke:#056680;stroke-width:0.5;stroke-miterlimit:10;}
	.st22{fill:#FFFFFF;}
</style>
<g>
	<defs>
		<polygon id="SVGID_1_" points="17.3,50.3 17.3,147.2 98.4,195 181.6,147.9 182.4,52 100,3.4 		"/>
	</defs>
	<clipPath id="SVGID_2_">
		<use xlink:href="#SVGID_1_"  style="overflow:visible;"/>
	</clipPath>
	<path class="st0" d="M139.2,137.7c-13.1-6.3-52.5,9.1-66.9,13c-12.6,3.4-34.4,15.5-57,14.9v30.7H147
		C146.9,173.6,150,142.9,139.2,137.7"/>
</g>
<g>
	<defs>
		<polygon id="SVGID_3_" points="16.8,50.6 16,146.4 98.4,195 181.6,147.9 182.4,52 100,3.4 		"/>
	</defs>
	<clipPath id="SVGID_4_">
		<use xlink:href="#SVGID_3_"  style="overflow:visible;"/>
	</clipPath>
	<path class="st1" d="M125.5,140c-17.4-10.3-47.6-1.6-36.6,25.7c0,0-11,11-5,20.2c-5.3,2.1-11.4,6.9-16.6,15.4h4h17.4h46.9
		C142.7,178.6,140.7,149,125.5,140"/>
	<path class="st2" d="M150.3,196.7c0,0,7.6-2.2,6.3-8.4c-1.4-6.2-6.3-8-6.3-8s6.9-2.4,6.2-9.3c-0.7-6.9-8.8-10-8.8-10
		s7.3-5.5,6.2-12.3c-1.2-6.8-8.8-7.3-8.8-7.3c2.6-3.4,10-4.7-3-17.3c-10.2-9.9-11.6-0.4-15.2,2.2c-3.7,2.5,0,13.6,0,13.6l-2.5,16.2
		c-0.3,9.5,6.2,10.7,6.2,10.7s-9.2,2.2-9.2,11.5c0,6.3,9.4,8.4,9.4,8.4s-10,4-8.3,12.8c0.1,0.7,0.3,1.4,0.5,2h33
		C154.4,197.7,150.3,196.7,150.3,196.7"/>
	<path class="st2" d="M23,182.5c0,0,3.8,15.2,13.7,0.6c0,0,1.4,6.8,9.3,5.5c10.1-1.7,9.3-8.2,9.3-8.2s2.6,6.9,10.1,5.4
		c10.3-2,7.4-11.3,7.4-11.3s6.4,7.9,13.5,3.7c8-4.6,3.9-10.6,2.7-12.1c-0.2-0.2-0.3-0.4-0.3-0.4s0.1,0.1,0.3,0.4
		c1.3,1.5,6.6,6.7,13,3.3c7.4-3.9,2.2-11.6,2.2-11.6s7.7,5.5,13,3.1c5.3-2.4,2.2-11,2.2-11s6.4,6.6,13.3-2.9c7-9.5,0-17,0-17
		s10.3,3.2,13.8-6.1c3.5-9.4-10.4-27.9-23.3-18.7c0,0-15-0.3-8.9,10.6c0,0-6.3-0.3-10.1,3.8c-3.9,4.1-1.3,10.4-1.3,10.4
		s-7.6-3.8-12-0.3c-4.4,3.5-1.6,11.5-1.6,11.5s-6.5-5.5-12.2-2.4c-5.8,3.1-3.6,11-3.6,11s-4.8-7.2-11.6-4.2
		c-7.9,3.6-7.8,10.1-7.6,11.7c0,0.2,0,0.4,0,0.4s0-0.1,0-0.4c-0.3-1.5-1.8-7.6-10.5-7.6c-6.2,0-8.1,3.8-8.7,6.5
		c0.1,1.4-0.3,2.4-0.3,2.4s0-1,0.3-2.4c-0.1-2.4-1.6-5.8-8.3-6.5c-4.5-0.4-7.6,0.6-9.5,1.9v36.6C21.8,187,23,182.5,23,182.5"/>
	<path class="st3" d="M31.5,131.1c1.6,0.1,3.2,0.2,4.9,0.3c4.5,0.1,9-0.4,13.5-1.1c0.8-0.5,1.7-0.8,2.7-0.8h0.1c0,0,0,0,0.1,0
		c0.3-0.1,0.5-0.2,0.8-0.2c0.7-0.2,1.3-0.5,2-0.7c0.5-0.1,0.9-0.2,1.4-0.3c5.2-6.3,7.6-15.1,7.6-23.2c0-9.3-4-16.5-9.5-21.3
		c-6.5-1-13-2-19.6-1.9c-5,0.1-9.9,0.8-14.7,1.8c-1,0.2-2.2,0.3-3.4,0.5v45c1.4,0,2.8,0.1,4.2,0.4C24.8,130.2,28.1,130.9,31.5,131.1
		"/>
</g>
<g>
	<defs>
		<polygon id="SVGID_5_" points="17.3,50.3 17.3,147.2 98.4,195 181.6,147.9 182.4,52 100,3.4 		"/>
	</defs>
	<clipPath id="SVGID_6_">
		<use xlink:href="#SVGID_5_"  style="overflow:visible;"/>
	</clipPath>
	<path class="st4" d="M21.3,112.4c0.4,0.9-3.1,3.4-3.1,3.4s3.5-1.4,4.1-0.5c0.8,1.1-4.9,4.5-4.9,4.5s4.9-2.4,5.7-1.3
		c0.8,1.1-3.4,6.7-3.4,6.7s4.1-4.7,5.5-4.5c1.4,0.3,0.4,4.5,0.4,4.5s1.7-4.5,3.1-4c1.2,0.5,0,5.6,0,5.6s2.4-4.6,3.4-4.5
		c2.1,0.3,2.1,5.5,2.1,5.5s0.5-5.7,1.8-5.9c1.1-0.1,1.6,3.8,1.6,3.8s0.1-3.8,1.3-4c1.3-0.3,3.6,5.6,3.6,5.6s-2-6-1.1-6.6
		c0.9-0.6,5.1,6.6,5.1,6.6s-2.5-6.4-1.5-7.9c0.9-1.5,7.3,4,7.3,4s-4.5-4.9-3.8-6.8c0.5-1.5,3.1-0.6,4-0.2c-1-0.5-3.9-2-3.1-3.2
		c0.9-1.5,5.5,0,5.5,0s-4.4-2.4-4.1-3.6c0.4-1.4,7.2-1,7.2-1s-5.7-1.4-5.7-2.5c0-2.5,5.7-2.8,5.7-2.8s-4.9-0.3-5.5-2
		c-0.3-1,3.8-3.2,3.8-3.2s-5.3,1.2-5.8,0c-0.7-1.8,3.7-8,3.7-8s-3.8,4-5.8,3.3c-2-0.7,0.5-7.8,0.5-7.8s-3.2,6.5-4.9,5.6
		c-1.6-0.9-0.7-3.5-0.5-5.6c0,0-2.8,5.6-4.8,4.6c-2-1-2-6.4-2-6.4s-1.1,5.8-2.7,6.2c-1.6,0.4-2.5-3.7-2.5-3.7s0.4,5-1.1,5.2
		c-1.5,0.3-4.6-5.2-4.6-5.2s2,5.2,1.1,6.2c-0.9,1-3.7-1.4-3.7-1.4s1.6,2.6,0.5,3.5c-1.1,0.9-6.1-2.1-6.1-2.1s4.5,4.7,3.6,5.7
		c-0.5,0.6-2.5,0-4-0.7v0.8c0.9,0.9,1.8,2,1.7,2.5c-0.1,0.3-0.8,0.6-1.7,0.7v1.3c0.9,0.3,1.5,0.6,1.5,0.9c0,0.3-0.7,0.7-1.5,1.1v2.3
		c1.4,0.3,2.6,0.7,2.6,1.4c0,0.9-1.2,1.8-2.6,2.6v1.1C19.2,112.1,21.1,111.9,21.3,112.4"/>
	<path class="st5" d="M184.1,38.4c-5.2-11.1-16.3-19.8-27.3-20.1c0.7-10.5,5.5-21.5,9.9-29.9h-11.2c-0.6,1-0.6,0.7-2,3.8
		c-1.6,3.3-0.3,0.5-2.8,6.6c-1.9,5.7-2.8,13.5-1.8,20.9c-0.4,0.2-0.8,0.3-1.2,0.5c-1.5,0.7-2.9,1.7-4.1,2.8
		c-1.9-5.6-4.1-11.1-7-16.3c-1.8-3.1-10.6-15.7-12.4-18.3h-14c3.7,5.8,16.1,17.4,22.7,29.5c2.1,3.8,3.9,7.6,6,11.2
		c-6.6,11.8-5.3,29.1-5.3,29.1c3.7,31,21.3,34.3,21.3,34.3c1.4,14-17.3,37.7-17.3,37.7c2.6,9.3,13.6,21.7,30.5,27.4
		c0.2,6.8,0.6,24.4,0.7,43.7h15.4V38.4z"/>
</g>
<g>
	<defs>
		<polygon id="SVGID_7_" points="16.8,50.6 16,146.4 98.4,195 181.6,147.9 182.4,52 100,3.4 		"/>
	</defs>
	<clipPath id="SVGID_8_">
		<use xlink:href="#SVGID_7_"  style="overflow:visible;"/>
	</clipPath>
	<path class="st6" d="M84,12.7c0,0,5.6,14.2,11.5,21.6c5.9,7.4,7.9,19.2,3,26.2c-5,7-18.5,8.3-23.6,2.7c-5.1-5.6-9.8-14-4.9-23.6
		C74.8,30,82.6,22.3,84,12.7"/>
	<path class="st7" d="M89.5,43.1c-3.9,1.9-3.8,8.2-1.1,9.5c3.5,1.6,8.6-1.1,8.8-4.2C97.7,43.1,94,40.9,89.5,43.1"/>
	<path class="st8" d="M41.1,93.2c-6.8-2.4-16.8,0.9-19,9.5c-1.8,7.2,1.9,14.9,12.4,16c8.4,0.9,13.2-5.9,14.6-11.4
		C50.4,101.9,47.8,95.6,41.1,93.2"/>
	<path class="st7" d="M48.5,85.9c-3.4,0.9-6.6,4.9-5.2,9c1.2,3.4,4.8,5.5,9.4,3.2c3.7-1.9,3.8-6,2.9-8.6
		C54.6,86.9,51.8,85.1,48.5,85.9"/>
	<path class="st7" d="M59.9,93.4c-1.9,0.5-3.7,2.8-2.9,5c0.7,1.9,2.7,3.1,5.2,1.8c2.1-1.1,2.1-3.4,1.6-4.8
		C63.3,93.9,61.8,92.9,59.9,93.4"/>
	<path class="st6" d="M180,151.6c-3.3-3-6.3-6.3-9.2-9.7c-3.6-4.3-4.9-9-5.8-14.4c-0.9-5.6-2.9-11.1-5.2-16.3
		c-2-4.6-4.1-10.4-7.9-13.6c-0.8-0.7-1.8,0.1-1.5,1c1.4,5.8,5.6,11.1,7.9,16.8c2.3,5.6,3.4,11.3,4.5,17.2
		C164.8,142.5,172.5,146.2,180,151.6C180,151.7,180.1,151.7,180,151.6"/>
	<path class="st6" d="M173.7,124c-0.6-4.8-2-10.5-5.9-13.8c-1.8-1.5-3.7-2.6-5.8-3.6c-2.6-1.2-5-2.8-7.6-3.8
		c-0.9-0.3-1.7,0.5-1.2,1.4c1.7,3,5.9,3.9,8.9,5.2c5.6,2.4,10.3,8.8,11.5,14.7C173.5,124.1,173.7,124.1,173.7,124"/>
	<path class="st6" d="M161.1,117.2c0.2,6.2,5.1,10.4,8.6,15c1.9,2.5,2.4,5.5,4.6,7.9c1.9,2,6.4,1.4,8.7,1.9c0.4,0.1,0.5-0.4,0.2-0.6
		c-2.9-1.7-6.3-0.4-8.7-3.4c-1.6-1.9-1.1-5.2-2.5-7.3c-3.2-4.9-8.3-8-10.6-13.5C161.2,117,161.1,117.1,161.1,117.2"/>
	<path class="st6" d="M164.3,135.3c-0.2,6.6-1.4,12.2,4.4,16.7c2.6,2,5.5,3.3,7.9,5.5c1.6,1.4,3.3,2.7,5.4,2.6
		c0.3,0,0.4-0.5,0.1-0.7c-3.6-1.5-6-4.9-9.4-7c-2.4-1.4-4.4-2.7-6-5c-2.4-3.5-0.8-8.3-1-12.2C165.8,134.2,164.4,134.3,164.3,135.3"
		/>
</g>
<g>
	<defs>
		<polygon id="SVGID_9_" points="17.3,50.3 17.3,147.2 98.4,195 181.6,147.9 182.4,52 100,3.4 		"/>
	</defs>
	<clipPath id="SVGID_10_">
		<use xlink:href="#SVGID_9_"  style="overflow:visible;"/>
	</clipPath>
	<path class="st9" d="M156.3,140.3c0.8-4.4-0.7-8.9-0.2-13.5c0.5-4.4,2.1-8.6,2.3-13c0-0.8-1.2-0.8-1.4-0.1
		c-1.3,4.7-2.4,9.6-2.8,14.4C153.9,132.1,155.3,136.4,156.3,140.3C156.2,140.3,156.3,140.3,156.3,140.3"/>
	<path class="st10" d="M184.1-2.6c-1.2,0.9-3.9,2.9-5.6,4.5c-10.2,9.3-21.2,19.7-27.3,38.2c-4.7,14.4,4,35,4.8,35.2
		c22.9,4.1,14.5-15.9,13.1-23.7c-2.1-11.6,6.2-26.1,15-36V-1.1L184.1-2.6z"/>
</g>
<g>
	<path class="st11" d="M73.1,82c23.7,10.9,27.2,19.4,27.2,19.4s-3.1-20-31.4-30.7c-24.9-9.4-40.1-7.1-51.6-3.4v10.1
		C31.3,74,52.7,72.6,73.1,82"/>
	<path class="st11" d="M62.4,128.1c19.3-7.1,36.5-20.7,35.7-21.3c-0.7-0.6-14-20.9-48.6-25.9c-12.3-1.8-23.1-0.4-32.2,2.4v3.2
		c9.1-2.9,20.1-4.6,32.4-2.8c30.7,4.5,44.5,22.5,45.2,23.1c0.7,0.5-18.6,13.7-35.7,20c-9.8,3.6-27.2,3.3-41.9,0.9v3
		C32.7,132.9,50.8,132.4,62.4,128.1"/>
	<path class="st12" d="M34.9,158.6c0,0,0.3-1,0.3-2.4C34.8,157.6,34.9,158.6,34.9,158.6"/>
	<path class="st12" d="M89.1,166c-0.2-0.3-0.3-0.4-0.3-0.4S88.9,165.7,89.1,166"/>
</g>
<g>
	<defs>
		<polygon id="SVGID_11_" points="17.3,50.3 17.3,147.2 98.4,195 181.6,147.9 182.4,52 100,3.4 		"/>
	</defs>
	<clipPath id="SVGID_12_">
		<use xlink:href="#SVGID_11_"  style="overflow:visible;"/>
	</clipPath>
	<path class="st13" d="M54.3,157.3c0,0.2,0,0.4,0,0.4S54.4,157.5,54.3,157.3"/>
	<path class="st14" d="M51.7,167c16.5-2.2,34.5-7.7,47.6-18.3c7.1-5.8,12.1-12.5,17.8-19.6c2.7-3.3,5.8-6.1,9.4-8.4
		c7.3-4.8,12.3-1.3,17.5,4.1c0.8,0.9,2.1-0.2,1.6-1.2c-6.1-12.9-19.1-5.9-26.6,1.3c-6.3,6-11.1,13.2-17.8,18.9
		c-7.8,6.7-17.5,11.3-27.1,14.7c-18.2,6.4-37.7,7.9-56.9,6.5v3.2C28.7,168.8,40.2,168.5,51.7,167"/>
</g>
<g>
	<defs>
		<polygon id="SVGID_13_" points="16.8,50.6 16,146.4 98.4,195 181.6,147.9 182.4,52 100,3.4 		"/>
	</defs>
	<clipPath id="SVGID_14_">
		<use xlink:href="#SVGID_13_"  style="overflow:visible;"/>
	</clipPath>
	<path class="st15" d="M128.7,144.3c-1.5,0.4-1.5,2.6,0,3c7.6,1.9,6.4,23.8,6.6,29.6c0.3,8.2,0.3,16.3,0.2,24.5h4.4
		C140.7,180.1,140.9,141.3,128.7,144.3"/>
	<path class="st15" d="M180.9,196.4c-0.1-2.1-3.5-1.9-3.2,0.2c0.1,0.7,0.2,3.7,1.1,4.8h1.7C181.5,200.3,180.9,197.6,180.9,196.4"/>
	<path class="st15" d="M174.4,195.3c-0.6-0.4-1.2-0.5-1.8-0.1c-0.6,0.4-0.9,1.4-0.4,2.1c0.7,0.8,1.6,1.9,2.7,2.1
		c0.6,0.1,1.9-0.3,1.7-1.1C176.1,197.1,175.3,196,174.4,195.3"/>
	<path class="st15" d="M177.8,188.1c-0.8-0.2-1.9,0.4-2,1.3c-0.1,1-0.4,2.3,0,3.2c0.2,0.6,0.8,1.7,1.7,1.4c1.4-0.6,1.6-2.6,1.7-3.9
		C179.2,189.2,178.7,188.3,177.8,188.1"/>
	<path class="st15" d="M179.4,187c0.3,1.2,0.6,2.4,1.4,3.4c0.4,0.5,1.5,1.4,2.1,0.7c1.1-1.3,0.1-3.8-0.3-5.2
		C181.9,183.8,178.8,184.9,179.4,187"/>
	<path class="st15" d="M173.4,181c-1.1,1.4-1.5,3.5-1.4,5.1c0,0.5,0.4,0.8,0.9,0.8c2,0,2.9-2.2,3.5-3.9c0.3-0.8,0.3-1.6-0.4-2.1
		C175.3,180.2,174,180.2,173.4,181"/>
	<path class="st15" d="M182.8,180.9c1.2-1.5-1.3-4-2.2-5.2c-1.3-1.7-3.8,0-2.7,1.8C178.4,178.3,181.8,182.2,182.8,180.9"/>
	<path class="st15" d="M174.3,179.8L174.3,179.8c0.6,0,1-0.4,1.2-0.8c0.6-1.1,1.1-2.7,1.1-3.9c0-1.6-2-2-3-1
		c-0.7,0.7-0.7,1.9-0.8,2.8C172.7,178,172.8,179.8,174.3,179.8"/>
	<path class="st15" d="M181.6,165.2c-1,0.3-1.5,1.4-1.8,2.3c-0.4,1.1-0.8,2.4-0.4,3.5c0.3,0.8,1.4,1.1,2.1,0.4
		c0.6-0.7,0.9-1.6,1.3-2.4c0.4-0.8,1-1.5,0.9-2.4C183.6,165.5,182.5,164.9,181.6,165.2"/>
	<path class="st15" d="M175.8,170.8c0.5,0.3,1,0.3,1.4-0.1c1.2-1.1,0-3.5-0.6-4.5c-1-1.8-4-0.3-3.2,1.6
		C173.8,168.9,174.7,170.1,175.8,170.8"/>
	<path class="st15" d="M169.1,172.5c-0.2,0.9-0.2,1.9-0.1,2.9c0,0.8,0.2,2,0.9,2.5c0.3,0.3,0.9,0.3,1.2-0.1c0.5-0.6,0.6-1.4,0.8-2.2
		c0.2-0.9,0.4-1.9,0.4-2.8C172.2,171,169.5,170.8,169.1,172.5"/>
	<path class="st16" d="M43.9,44.1c2.9,5.1,5.4,11.1,11.3,13.5c5.5,2.2,11.2,2.1,16.5-0.5c10.1-4.9,12.1-18.3,21.4-23.4
		c12-6.6,22.3,2.1,27.8,14.5c0.3,0.9,0.5,1.9,0.9,2.9c3.1,9.6,0.2,29.8,0.2,29.8c-9.1,12.8-2,31.5,6.4,43.4
		c14.1,20,23.3,20,22.7-1.7c-0.6-21.6,6.2-18.6,10.2-30c4.9-13.9-2.6-23.1-15.1-20.1c-12.9,3.1-8.2-12.7-12.9-22.1
		c-3.3-6.4-6-10.7-8.1-13.2c-9.7-14.8-30-22.5-43.2-5.3C75.6,40.1,67.7,64,53.8,49.7c-5-5.2-6.2-12.5-12.1-17.2
		C36.4,28.3,28,28,22,30.8c-1.7,0.8-3.2,1.7-4.7,2.8v11.4C26.4,36.3,35.8,29.9,43.9,44.1"/>
	<path class="st17" d="M116,69.7c0,0,3.3,8.4,6.9,12.9c3.5,4.4,4.7,11.5,1.8,15.6c-3,4.2-11,4.9-14.1,1.6c-3-3.3-5.8-8.3-2.9-14.1
		C110.6,80,115.2,75.4,116,69.7"/>
	<path class="st18" d="M120.5,86.6c-1.8,0-3,2.4-2.2,3.5c1,1.3,3.5,1.2,4.2,0C123.6,88.1,122.6,86.6,120.5,86.6"/>
</g>
<g>
	<polygon class="st19" points="181.6,147.9 182.4,52 100,3.4 16.8,50.6 16,146.4 98.4,195 	"/>
</g>
<g>
	<polygon class="st20" points="68.4,64.4 68.4,90.8 85.9,90.8 85.9,85 75.4,85 75.4,80.3 84,80.3 84,74.4 75.4,74.4 75.4,70.3 
		85.5,70.3 85.5,64.4 	"/>
	<g>
		<path class="st20" d="M98,76.5h2.5c2.8,0,4.2-1.2,4.2-3.5s-1.5-3-4.2-3H98V76.5z M105.2,90.8l-4.6-8.9H98v8.9h-7V64.4h10
			c5.7,0,10.6,1.9,10.6,8.5c0,3.8-1.7,6.3-4.3,7.6l5.7,10.2L105.2,90.8L105.2,90.8z"/>
	</g>
	<polygon class="st20" points="113.9,64.4 113.9,70.3 120.9,70.3 120.9,90.8 127.8,90.8 127.8,70.3 134.8,70.3 134.8,64.4 	"/>
	<polygon class="st20" points="138.7,64.4 138.7,90.8 156.3,90.8 156.3,85 145.7,85 145.7,80.3 154.3,80.3 154.3,74.4 145.7,74.4 
		145.7,70.3 156.3,70.3 156.3,64.4 	"/>
	<path class="st20" d="M56.4,63.9c3.3,0,6.2,1.6,8,3.5l-3.8,4.3c-1.3-1.1-2.4-1.8-4.1-1.8c-3.2,0-5.9,2.8-5.9,7.6
		c0,5,2.3,7.7,5.7,7.7c2,0,3.5-0.9,4.6-2.1l3.8,4.2c-2.2,2.6-5.3,3.9-8.5,3.9c-6.9,0-12.8-4.5-12.8-13.5
		C43.5,69,49.5,63.9,56.4,63.9"/>
</g>
<g>
	<path class="st21" d="M106.8,182.1c0.1,0.1,0.1,0.2,0.1,0.3c0,0.1-0.1,0.2-0.1,0.3s-0.2,0.2-0.4,0.3c-0.2,0.1-0.4,0.3-0.6,0.4
		c-0.3,0.2-0.5,0.3-0.7,0.4c-0.2,0.1-0.3,0.1-0.5,0.2c-0.1,0-0.2,0-0.3,0s-0.2-0.1-0.2-0.2l-0.7-1.2c-0.2,1-0.6,1.8-1.1,2.5
		c-0.5,0.7-1.1,1.3-1.9,1.8c-0.9,0.5-1.7,0.8-2.5,0.8c-0.8,0-1.6-0.1-2.3-0.5c-0.7-0.3-1.4-0.8-2-1.5c-0.6-0.6-1.1-1.4-1.6-2.2
		c-0.6-1-1-1.9-1.2-2.8c-0.2-0.9-0.3-1.8-0.2-2.6c0.1-0.8,0.4-1.5,0.9-2.2c0.5-0.7,1.1-1.2,1.9-1.7c0.7-0.4,1.3-0.6,2-0.6
		c0.7-0.1,1.4,0,2.2,0.2l-3.5-6c0-0.1-0.1-0.2-0.1-0.3c0-0.1,0.1-0.2,0.2-0.3c0.1-0.1,0.2-0.2,0.4-0.4c0.2-0.1,0.5-0.3,0.8-0.5
		c0.3-0.2,0.6-0.3,0.8-0.4s0.4-0.2,0.6-0.2c0.1,0,0.3,0,0.4,0c0.1,0,0.2,0.1,0.2,0.2L106.8,182.1z M99.2,176.6
		c-0.8-0.3-1.5-0.5-2.1-0.5s-1.1,0.1-1.6,0.3c-0.4,0.2-0.7,0.6-0.9,0.9c-0.2,0.4-0.3,0.8-0.3,1.2c0,0.4,0.1,0.9,0.2,1.4
		c0.1,0.5,0.4,0.9,0.6,1.4c0.3,0.5,0.6,0.9,0.9,1.3s0.7,0.7,1.1,0.9c0.4,0.2,0.8,0.4,1.2,0.4c0.4,0,0.8-0.1,1.3-0.3
		c0.2-0.1,0.4-0.3,0.6-0.5s0.3-0.4,0.5-0.7c0.1-0.3,0.3-0.6,0.4-0.9s0.2-0.8,0.3-1.3L99.2,176.6z"/>
	<path class="st21" d="M120,174.5c0.1,0.1,0.1,0.2,0,0.3c0,0.1-0.2,0.2-0.3,0.4c-0.2,0.1-0.4,0.3-0.8,0.5c-0.4,0.2-0.7,0.4-0.9,0.5
		c-0.2,0.1-0.3,0.1-0.5,0.1s-0.2-0.1-0.3-0.2l-0.5-0.9c-0.2,0.8-0.5,1.5-1,2.1c-0.5,0.6-1.1,1.2-1.8,1.6c-0.6,0.4-1.2,0.6-1.8,0.8
		c-0.6,0.1-1.2,0.2-1.7,0.1c-0.6-0.1-1.1-0.3-1.5-0.6c-0.5-0.3-0.9-0.8-1.2-1.4c-0.4-0.6-0.6-1.3-0.6-1.9s0.2-1.2,0.5-1.9
		c0.3-0.6,0.9-1.2,1.6-1.8c0.7-0.6,1.6-1.2,2.6-1.8l1.1-0.7l-0.4-0.7c-0.2-0.3-0.4-0.6-0.6-0.8c-0.2-0.2-0.5-0.4-0.7-0.4
		s-0.6-0.1-0.9,0c-0.3,0.1-0.7,0.2-1.1,0.5c-0.5,0.3-1,0.7-1.4,1s-0.7,0.7-0.9,1c-0.2,0.3-0.5,0.6-0.6,0.9c-0.2,0.2-0.3,0.4-0.4,0.5
		c-0.1,0.1-0.2,0.1-0.3,0.1c-0.1,0-0.2-0.1-0.3-0.1c-0.1-0.1-0.2-0.2-0.3-0.3c-0.1-0.1-0.2-0.3-0.3-0.5c-0.1-0.3-0.2-0.5-0.3-0.6
		c0-0.2,0-0.4,0-0.5c0.1-0.2,0.2-0.4,0.4-0.8c0.2-0.3,0.5-0.7,0.8-1c0.3-0.4,0.7-0.7,1.2-1.1c0.4-0.4,0.9-0.7,1.4-1
		c0.9-0.5,1.7-0.9,2.5-1.1s1.4-0.3,2.1-0.1c0.6,0.1,1.2,0.4,1.7,0.8c0.5,0.4,1,1,1.4,1.8L120,174.5z M114.1,171.6l-1.3,0.7
		c-0.5,0.3-1,0.6-1.3,0.9c-0.3,0.3-0.6,0.6-0.7,0.9c-0.1,0.3-0.2,0.6-0.2,0.8c0,0.3,0.1,0.5,0.3,0.8c0.3,0.5,0.6,0.7,1.1,0.8
		c0.5,0.1,1,0,1.5-0.3c0.5-0.3,0.8-0.6,1.1-1.1c0.3-0.4,0.5-1,0.6-1.7L114.1,171.6z"/>
	<path class="st21" d="M129.3,167.6c0.2,0.4,0.3,0.7,0.4,0.9c0.1,0.2,0.1,0.4,0,0.5c0,0.1-0.1,0.3-0.2,0.4c-0.1,0.1-0.3,0.3-0.4,0.5
		s-0.4,0.3-0.6,0.5c-0.2,0.2-0.5,0.3-0.7,0.5c-0.7,0.4-1.3,0.6-1.8,0.7c-0.6,0.1-1.1,0.1-1.6,0c-0.5-0.1-1-0.4-1.4-0.8
		c-0.4-0.4-0.8-1-1.2-1.6l-3.3-5.7l-1.4,0.8c-0.2,0.1-0.3,0.1-0.5-0.1c-0.2-0.1-0.4-0.4-0.7-0.9c-0.1-0.2-0.2-0.4-0.3-0.6
		c-0.1-0.2-0.1-0.3-0.1-0.4c0-0.1,0-0.2,0-0.3c0-0.1,0.1-0.1,0.2-0.2l1.4-0.8l-1.4-2.5c0-0.1-0.1-0.2-0.1-0.3s0.1-0.2,0.2-0.3
		c0.1-0.1,0.3-0.2,0.5-0.4c0.2-0.1,0.5-0.3,0.8-0.5c0.3-0.2,0.6-0.3,0.8-0.4s0.4-0.2,0.6-0.2s0.3,0,0.4,0c0.1,0,0.2,0.1,0.2,0.2
		l1.4,2.5l2.5-1.5c0.1,0,0.2-0.1,0.3-0.1c0.1,0,0.2,0,0.3,0.1c0.1,0.1,0.2,0.2,0.3,0.3c0.1,0.2,0.2,0.3,0.4,0.6
		c0.3,0.5,0.4,0.8,0.4,1c0,0.2,0,0.4-0.2,0.5l-2.5,1.5l3,5.2c0.3,0.6,0.7,1,1.1,1.2c0.4,0.2,0.8,0.1,1.3-0.2
		c0.2-0.1,0.3-0.2,0.4-0.3c0.1-0.1,0.2-0.2,0.3-0.3c0.1-0.1,0.2-0.2,0.2-0.3c0.1-0.1,0.1-0.1,0.2-0.2c0.1,0,0.1,0,0.2,0
		c0.1,0,0.1,0,0.2,0.1c0.1,0.1,0.2,0.2,0.3,0.3C129.1,167.2,129.2,167.4,129.3,167.6z"/>
	<path class="st21" d="M142,161.8c0.1,0.1,0.1,0.2,0,0.3c0,0.1-0.2,0.2-0.3,0.4c-0.2,0.1-0.4,0.3-0.8,0.5c-0.4,0.2-0.7,0.4-0.9,0.5
		c-0.2,0.1-0.3,0.1-0.5,0.1c-0.1,0-0.2-0.1-0.3-0.2l-0.5-0.9c-0.2,0.8-0.5,1.5-1,2.1c-0.5,0.6-1.1,1.2-1.8,1.6
		c-0.6,0.4-1.2,0.6-1.8,0.8c-0.6,0.1-1.2,0.2-1.7,0.1c-0.6-0.1-1.1-0.3-1.5-0.6c-0.5-0.3-0.9-0.8-1.2-1.4c-0.4-0.6-0.6-1.3-0.6-1.9
		s0.2-1.3,0.5-1.9c0.3-0.6,0.9-1.2,1.6-1.8c0.7-0.6,1.6-1.2,2.6-1.8l1.1-0.7l-0.4-0.7c-0.2-0.3-0.4-0.6-0.6-0.8
		c-0.2-0.2-0.5-0.4-0.7-0.4c-0.3-0.1-0.6-0.1-0.9,0c-0.3,0.1-0.7,0.2-1.1,0.5c-0.5,0.3-1,0.7-1.4,1s-0.7,0.7-0.9,1
		c-0.2,0.3-0.5,0.6-0.6,0.9c-0.2,0.2-0.3,0.4-0.4,0.5c-0.1,0.1-0.2,0.1-0.3,0.1s-0.2-0.1-0.3-0.1c-0.1-0.1-0.2-0.2-0.3-0.3
		c-0.1-0.1-0.2-0.3-0.3-0.5c-0.1-0.3-0.2-0.5-0.3-0.6c0-0.2,0-0.4,0-0.5c0.1-0.2,0.2-0.4,0.4-0.8c0.2-0.3,0.5-0.7,0.8-1
		c0.3-0.4,0.7-0.7,1.2-1.1c0.4-0.4,0.9-0.7,1.4-1c0.9-0.5,1.7-0.9,2.5-1.1c0.7-0.2,1.4-0.3,2.1-0.1c0.6,0.1,1.2,0.4,1.7,0.8
		c0.5,0.4,1,1,1.4,1.8L142,161.8z M136.1,158.9l-1.3,0.7c-0.5,0.3-1,0.6-1.3,0.9c-0.3,0.3-0.6,0.6-0.7,0.9c-0.1,0.3-0.2,0.6-0.2,0.8
		c0,0.3,0.1,0.5,0.3,0.8c0.3,0.5,0.6,0.7,1.1,0.8s1,0,1.5-0.3c0.5-0.3,0.8-0.6,1.1-1.1c0.3-0.4,0.5-1,0.6-1.7L136.1,158.9z"/>
</g>
<g>
	<path class="st22" d="M159,41.6c-0.1,0.2-0.3,0.4-0.4,0.5s-0.3,0.2-0.4,0.3c-0.2,0-0.3,0.1-0.5,0s-0.4-0.1-0.5-0.2
		c-0.2-0.1-0.3-0.2-0.5-0.4s-0.2-0.3-0.2-0.4s0-0.3,0-0.5c0-0.2,0.1-0.4,0.2-0.5c0.1-0.2,0.3-0.4,0.4-0.5c0.1-0.1,0.3-0.2,0.4-0.3
		c0.2,0,0.3-0.1,0.5,0c0.2,0,0.4,0.1,0.5,0.2c0.2,0.1,0.4,0.2,0.5,0.4c0.1,0.1,0.2,0.3,0.2,0.4s0,0.3,0,0.5S159.1,41.5,159,41.6z
		 M157.2,42c0.2,0.1,0.3,0.2,0.5,0.2s0.3,0,0.4-0.1s0.2-0.1,0.3-0.2c0.1-0.1,0.2-0.2,0.3-0.4c0.1-0.2,0.2-0.3,0.2-0.4
		c0-0.1,0-0.3,0-0.4c0-0.1-0.1-0.2-0.2-0.4c-0.1-0.1-0.2-0.2-0.4-0.3c-0.2-0.1-0.3-0.1-0.4-0.2s-0.3,0-0.4,0c-0.1,0-0.2,0.1-0.4,0.2
		c-0.1,0.1-0.2,0.2-0.3,0.4c-0.1,0.2-0.2,0.3-0.2,0.5c0,0.1,0,0.3,0,0.4c0,0.1,0.1,0.2,0.2,0.4C156.9,41.8,157.1,41.9,157.2,42z
		 M158,41.8C158,41.8,158,41.8,158,41.8C158,41.8,158,41.8,158,41.8C157.9,41.9,157.9,41.9,158,41.8c-0.1,0.1-0.1,0.1-0.1,0.1
		c0,0,0,0-0.1,0s-0.1,0-0.1,0c0,0-0.1,0-0.1,0s-0.1,0-0.2-0.1c-0.1-0.1-0.2-0.1-0.2-0.2c-0.1-0.1-0.1-0.2-0.1-0.3c0-0.1,0-0.2,0-0.3
		s0.1-0.2,0.1-0.3c0.1-0.1,0.2-0.2,0.2-0.3c0.1-0.1,0.2-0.1,0.3-0.2s0.2,0,0.3,0c0.1,0,0.2,0,0.3,0.1c0,0,0.1,0.1,0.1,0.1
		s0.1,0.1,0.1,0.1c0,0,0,0.1,0.1,0.1s0,0.1,0,0.1c0,0,0,0,0,0s0,0,0,0c0,0,0,0,0,0c0,0,0,0,0,0c0,0,0,0,0,0c0,0,0,0,0,0c0,0,0,0,0,0
		s0,0,0,0c0,0,0,0,0-0.1c0,0,0-0.1,0-0.1s0-0.1-0.1-0.1s-0.1-0.1-0.1-0.1c-0.1-0.1-0.2-0.1-0.4,0c-0.1,0.1-0.2,0.2-0.3,0.3
		c-0.1,0.1-0.1,0.2-0.1,0.3c0,0.1,0,0.1,0,0.2s0,0.1,0.1,0.2s0.1,0.1,0.1,0.1c0.1,0,0.1,0.1,0.2,0.1c0.1,0,0.1,0,0.1,0
		c0,0,0.1,0,0.1,0c0,0,0.1,0,0.1,0c0,0,0,0,0,0C158,41.7,158.1,41.7,158,41.8C158,41.7,158,41.7,158,41.8
		C158,41.7,158,41.8,158,41.8z"/>
	<path class="st22" d="M161.2,43.7c-0.1,0.1-0.1,0.2-0.2,0.2s-0.2,0.1-0.3,0.1c-0.1,0-0.2,0-0.3,0c-0.1,0-0.2-0.1-0.3-0.1
		c-0.1,0-0.1-0.1-0.2-0.1s-0.1-0.1-0.1-0.1s-0.1-0.1-0.1-0.1s0-0.1,0-0.1c0,0,0,0,0-0.1s0-0.1,0-0.1c0,0,0,0,0-0.1c0,0,0,0,0,0
		c0,0,0,0,0,0c0,0,0,0,0,0c0,0,0,0,0,0.1s0,0.1,0.1,0.1c0,0,0.1,0.1,0.1,0.2s0.1,0.1,0.2,0.2c0.1,0,0.1,0.1,0.2,0.1
		c0.1,0,0.1,0,0.2,0s0.1,0,0.2-0.1c0,0,0.1-0.1,0.1-0.1c0-0.1,0.1-0.1,0-0.2c0-0.1,0-0.1,0-0.2c0-0.1-0.1-0.1-0.1-0.2
		c0-0.1-0.1-0.1-0.1-0.2c0-0.1-0.1-0.1-0.1-0.2s-0.1-0.1-0.1-0.2c0-0.1,0-0.2,0-0.2s0-0.2,0.1-0.3c0.1-0.1,0.1-0.2,0.2-0.2
		c0.1-0.1,0.2-0.1,0.2-0.1c0.1,0,0.2,0,0.3,0c0.1,0,0.2,0.1,0.3,0.1c0,0,0.1,0.1,0.1,0.1c0,0,0.1,0.1,0.1,0.1c0,0,0.1,0.1,0.1,0.1
		c0,0,0,0.1,0,0.1c0,0,0,0,0,0s0,0,0,0c0,0,0,0,0,0c0,0,0,0,0,0.1c0,0,0,0,0,0.1c0,0,0,0,0,0c0,0,0,0,0,0c0,0,0,0,0,0c0,0,0,0,0-0.1
		c0,0,0-0.1-0.1-0.1c0,0-0.1-0.1-0.1-0.1c0,0-0.1-0.1-0.2-0.1c-0.1,0-0.1-0.1-0.2-0.1c-0.1,0-0.1,0-0.2,0s-0.1,0-0.1,0.1
		c0,0-0.1,0.1-0.1,0.1c0,0.1-0.1,0.1,0,0.2c0,0.1,0,0.1,0,0.2s0.1,0.1,0.1,0.2c0,0.1,0.1,0.1,0.1,0.2s0.1,0.1,0.1,0.2
		c0,0.1,0.1,0.1,0.1,0.2c0,0.1,0,0.2,0,0.2S161.2,43.6,161.2,43.7z"/>
	<path class="st22" d="M163.5,43.7C163.5,43.7,163.5,43.7,163.5,43.7c0.1,0.1,0.1,0.1,0,0.1l-0.9,1.5c0,0,0,0,0,0s0,0,0,0s0,0,0,0
		c0,0,0,0-0.1,0c0,0-0.1,0-0.1,0c0,0,0,0,0,0c0,0,0,0,0,0c0,0,0,0,0,0l0.8-1.3l-0.8-0.5l-0.5,0.8c-0.1,0.1-0.1,0.2-0.1,0.3
		c0,0.1,0,0.1,0.1,0.2c0,0,0.1,0,0.1,0s0,0,0.1,0c0,0,0,0,0,0s0,0,0,0c0,0,0,0,0,0s0,0,0,0c0,0,0,0,0,0s0,0,0,0.1c0,0,0,0.1-0.1,0.1
		c0,0,0,0,0,0c0,0,0,0-0.1,0s0,0-0.1,0c0,0-0.1,0-0.1,0c0,0-0.1,0-0.1,0c-0.1,0-0.1-0.1-0.2-0.1c0-0.1-0.1-0.1-0.1-0.2s0-0.1,0-0.2
		s0.1-0.2,0.1-0.2l0.5-0.9l-0.2-0.1c0,0,0,0,0-0.1s0-0.1,0-0.1c0,0,0,0,0-0.1c0,0,0,0,0,0c0,0,0,0,0,0s0,0,0,0l0.2,0.1l0.2-0.4
		c0,0,0,0,0,0c0,0,0,0,0,0c0,0,0,0,0,0c0,0,0,0,0.1,0c0,0,0.1,0,0.1,0c0,0,0,0,0,0s0,0,0,0c0,0,0,0,0,0l-0.2,0.4L163.5,43.7z
		 M163.9,43.3c0,0.1-0.1,0.1-0.1,0.1c0,0-0.1,0-0.2,0c-0.1,0-0.1-0.1-0.1-0.1c0,0,0-0.1,0-0.2s0.1-0.1,0.1-0.1c0,0,0.1,0,0.2,0
		c0.1,0,0.1,0.1,0.1,0.1C163.9,43.2,163.9,43.2,163.9,43.3z"/>
	<path class="st22" d="M164.4,46C164.4,46,164.4,46.1,164.4,46C164.4,46.1,164.4,46.1,164.4,46c-0.1,0.1-0.1,0.1-0.1,0.1s0,0,0,0
		c0,0-0.1,0-0.1,0s-0.1,0-0.1,0c-0.1,0-0.1,0-0.2,0c-0.1,0-0.1,0-0.2-0.1c-0.1-0.1-0.2-0.1-0.3-0.2c-0.1-0.1-0.1-0.2-0.1-0.3
		c0-0.1,0-0.2,0-0.3c0-0.1,0.1-0.2,0.2-0.4c0.1-0.1,0.2-0.3,0.3-0.4c0.1-0.1,0.2-0.1,0.3-0.2c0.1,0,0.2,0,0.3,0s0.2,0.1,0.3,0.1
		c0,0,0.1,0.1,0.1,0.1c0,0,0.1,0.1,0.1,0.1c0,0,0.1,0.1,0.1,0.1c0,0,0,0.1,0,0.1c0,0,0,0,0,0s0,0,0,0c0,0,0,0,0,0s0,0,0,0.1
		c0,0,0,0.1-0.1,0.1c0,0,0,0-0.1,0c0,0,0,0,0-0.1s0-0.1,0-0.1c0,0,0-0.1-0.1-0.1s-0.1-0.1-0.2-0.1c-0.1-0.1-0.3-0.1-0.4,0
		s-0.3,0.2-0.4,0.4c-0.1,0.1-0.1,0.2-0.1,0.3s0,0.2,0,0.2c0,0.1,0,0.1,0.1,0.2s0.1,0.1,0.2,0.1c0.1,0,0.1,0.1,0.2,0.1s0.1,0,0.2,0
		c0.1,0,0.1,0,0.1,0c0,0,0.1,0,0.1,0c0,0,0,0,0,0c0,0,0,0,0,0S164.4,45.9,164.4,46C164.4,46,164.4,46,164.4,46z"/>
	<path class="st22" d="M165.9,47.2C165.9,47.2,165.9,47.2,165.9,47.2C165.9,47.2,165.9,47.2,165.9,47.2
		C165.9,47.2,165.9,47.2,165.9,47.2c-0.1,0-0.1,0-0.2,0c0,0-0.1,0-0.1,0c0,0,0,0,0,0s0,0,0,0c0,0,0,0,0,0l0.5-0.9
		c0-0.1,0.1-0.2,0.1-0.2c0-0.1,0-0.1,0-0.2c0-0.1,0-0.1,0-0.1s-0.1-0.1-0.1-0.1c-0.1,0-0.2-0.1-0.3,0c-0.1,0-0.2,0-0.3,0.1l-0.6,1.1
		c0,0,0,0,0,0c0,0,0,0,0,0c0,0,0,0,0,0s0,0-0.1,0c0,0,0,0-0.1,0c0,0,0,0,0,0c0,0,0,0,0,0c0,0,0,0,0,0l1.3-2.3c0,0,0,0,0,0
		c0,0,0,0,0,0c0,0,0,0,0,0c0,0,0,0,0.1,0c0,0,0.1,0,0.1,0c0,0,0,0,0,0c0,0,0,0,0,0s0,0,0,0l-0.5,0.9c0.1,0,0.2-0.1,0.4,0
		c0.1,0,0.2,0,0.3,0.1c0.1,0.1,0.2,0.1,0.2,0.2c0,0.1,0.1,0.2,0.1,0.2s0,0.2,0,0.3c0,0.1-0.1,0.2-0.1,0.3L165.9,47.2z"/>
	<path class="st22" d="M168.7,46.7C168.7,46.7,168.7,46.7,168.7,46.7c0.1,0.1,0.1,0.1,0,0.1l-0.9,1.5c0,0,0,0,0,0c0,0,0,0,0,0
		c0,0,0,0,0,0s0,0-0.1,0c0,0-0.1,0-0.1,0c0,0,0,0,0,0c0,0,0,0,0,0s0,0,0,0l0.8-1.3l-0.8-0.5l-0.5,0.8c-0.1,0.1-0.1,0.2-0.1,0.3
		s0,0.1,0.1,0.2c0,0,0,0,0.1,0c0,0,0,0,0.1,0c0,0,0,0,0,0s0,0,0,0c0,0,0,0,0,0c0,0,0,0,0,0c0,0,0,0,0,0s0,0,0,0.1c0,0,0,0.1-0.1,0.1
		c0,0,0,0,0,0s0,0-0.1,0c0,0,0,0-0.1,0c0,0-0.1,0-0.1,0c0,0-0.1,0-0.1,0c-0.1,0-0.1-0.1-0.2-0.1c0-0.1-0.1-0.1-0.1-0.2
		c0-0.1,0-0.1,0-0.2s0.1-0.2,0.1-0.2l0.5-0.9l-0.2-0.1c0,0,0,0,0-0.1s0-0.1,0-0.1c0,0,0,0,0-0.1c0,0,0,0,0,0c0,0,0,0,0,0
		c0,0,0,0,0,0l0.2,0.1l0.2-0.4c0,0,0,0,0,0c0,0,0,0,0,0c0,0,0,0,0,0c0,0,0,0,0.1,0c0,0,0.1,0,0.1,0c0,0,0,0,0,0c0,0,0,0,0,0
		c0,0,0,0,0,0l-0.2,0.4L168.7,46.7z M169,46.3c0,0.1-0.1,0.1-0.1,0.1c0,0-0.1,0-0.2,0s-0.1-0.1-0.1-0.1c0,0,0-0.1,0-0.2
		c0-0.1,0.1-0.1,0.1-0.1c0,0,0.1,0,0.2,0c0.1,0,0.1,0.1,0.1,0.1C169.1,46.2,169.1,46.2,169,46.3z"/>
	<path class="st22" d="M169.7,49.4C169.7,49.4,169.7,49.4,169.7,49.4C169.6,49.4,169.6,49.4,169.7,49.4
		C169.6,49.4,169.6,49.4,169.7,49.4c-0.1,0-0.1,0-0.2,0c0,0-0.1,0-0.1,0c0,0,0,0,0,0s0,0,0,0s0,0,0,0l0.5-0.9
		c0.1-0.1,0.1-0.2,0.1-0.2c0-0.1,0-0.1,0-0.2s0-0.1,0-0.1s-0.1-0.1-0.1-0.1c-0.1,0-0.2-0.1-0.3,0c-0.1,0-0.2,0-0.3,0.1l-0.6,1.1
		c0,0,0,0,0,0c0,0,0,0,0,0c0,0,0,0,0,0c0,0,0,0-0.1,0c0,0,0,0-0.1,0c0,0,0,0,0,0c0,0,0,0,0,0s0,0,0,0l0.9-1.5c0,0,0,0,0,0s0,0,0,0
		c0,0,0,0,0,0c0,0,0,0,0.1,0c0,0,0,0,0.1,0s0,0,0,0c0,0,0,0,0,0c0,0,0,0,0,0l-0.1,0.2c0.1,0,0.3-0.1,0.4-0.1c0.1,0,0.2,0,0.3,0.1
		c0.1,0.1,0.2,0.1,0.2,0.2c0,0.1,0.1,0.2,0.1,0.2c0,0.1,0,0.2,0,0.3c0,0.1-0.1,0.2-0.1,0.3L169.7,49.4z"/>
	<path class="st22" d="M172.3,48.9C172.3,49,172.2,49,172.3,48.9c-0.1,0.1-0.1,0.1-0.1,0.1l-0.2-0.1c0,0.1,0,0.1,0,0.2
		c0,0.1,0,0.1-0.1,0.2c-0.1,0.1-0.1,0.2-0.2,0.2s-0.1,0.1-0.2,0.1c-0.1,0-0.2,0-0.2,0c-0.1,0-0.2-0.1-0.3-0.1
		c-0.1,0-0.1-0.1-0.2-0.1c0,0-0.1-0.1-0.1-0.1c0,0-0.1,0-0.1,0c0,0-0.1,0-0.1,0.1c0,0,0,0.1,0,0.1c0,0,0.1,0.1,0.1,0.1l0.4,0.2
		c0.1,0,0.1,0.1,0.2,0.2c0.1,0.1,0.1,0.1,0.1,0.2c0,0.1,0,0.1,0,0.2c0,0.1,0,0.1-0.1,0.2c0,0.1-0.1,0.1-0.2,0.2s-0.1,0.1-0.2,0.1
		c-0.1,0-0.2,0-0.3,0c-0.1,0-0.2-0.1-0.4-0.1c-0.1-0.1-0.2-0.1-0.3-0.2c-0.1-0.1-0.1-0.1-0.2-0.2c0-0.1,0-0.1,0-0.2
		c0-0.1,0-0.1,0.1-0.2c0,0,0-0.1,0.1-0.1c0,0,0.1-0.1,0.1-0.1s0.1,0,0.1-0.1c0,0,0.1,0,0.1,0c0-0.1-0.1-0.1-0.1-0.2
		c0-0.1,0-0.1,0-0.2c0-0.1,0.1-0.1,0.1-0.2c0.1,0,0.1-0.1,0.2-0.1c0-0.1,0-0.1,0-0.2c0-0.1,0-0.1,0.1-0.2c0.1-0.1,0.1-0.2,0.2-0.2
		c0.1-0.1,0.1-0.1,0.2-0.1c0.1,0,0.2,0,0.2,0s0.2,0,0.3,0.1c0,0,0.1,0.1,0.1,0.1c0,0,0.1,0.1,0.1,0.1l0.5,0.3
		C172.3,48.8,172.3,48.8,172.3,48.9C172.3,48.9,172.3,48.9,172.3,48.9z M171.1,50.4c0-0.1,0-0.1,0-0.2c0-0.1-0.1-0.1-0.2-0.2
		l-0.4-0.2c-0.1,0-0.1,0-0.1,0c0,0-0.1,0-0.1,0c0,0,0,0-0.1,0.1c0,0,0,0,0,0.1c0,0.1,0,0.1,0,0.2s0.1,0.2,0.3,0.2
		c0.1,0,0.2,0.1,0.2,0.1s0.1,0,0.2,0C170.9,50.5,170.9,50.5,171.1,50.4C171,50.5,171,50.4,171.1,50.4z M171.6,49.1
		c0.1-0.1,0.1-0.2,0.1-0.3s-0.1-0.2-0.2-0.2c-0.1,0-0.1,0-0.2-0.1c-0.1,0-0.1,0-0.1,0c0,0-0.1,0-0.1,0.1c0,0-0.1,0.1-0.1,0.1
		c-0.1,0.1-0.1,0.2-0.1,0.3c0,0.1,0.1,0.2,0.2,0.2c0.1,0,0.1,0.1,0.2,0.1s0.1,0,0.1,0c0,0,0.1,0,0.1-0.1
		C171.6,49.2,171.6,49.1,171.6,49.1z"/>
	<path class="st22" d="M174.2,51.7C174.2,51.7,174.2,51.7,174.2,51.7C174.2,51.7,174.2,51.7,174.2,51.7
		C174.2,51.7,174.2,51.7,174.2,51.7c-0.1,0.1-0.1,0.1-0.1,0.1c0,0-0.1,0-0.1,0c0,0-0.1,0-0.2,0s-0.1,0-0.2-0.1
		c-0.1,0-0.2-0.1-0.2-0.1c-0.1-0.1-0.3-0.2-0.3-0.3c-0.1-0.1-0.1-0.2-0.2-0.4s0-0.3,0-0.5s0.1-0.3,0.2-0.5c0.1-0.2,0.2-0.3,0.4-0.4
		c0.1-0.1,0.3-0.2,0.4-0.2c0.1,0,0.3-0.1,0.4,0c0.1,0,0.3,0.1,0.4,0.1c0.1,0,0.1,0.1,0.2,0.1s0.1,0.1,0.1,0.1c0,0,0.1,0.1,0.1,0.1
		c0,0,0,0.1,0,0.1c0,0,0,0,0,0.1s0,0,0,0s0,0,0,0c0,0,0,0,0,0.1c0,0,0,0,0,0.1c0,0,0,0,0,0c0,0,0,0,0,0c0,0,0,0,0,0c0,0,0,0,0-0.1
		c0,0,0-0.1-0.1-0.1c0-0.1-0.1-0.1-0.1-0.2c-0.1-0.1-0.1-0.1-0.2-0.2c-0.1-0.1-0.2-0.1-0.3-0.1c-0.1,0-0.2,0-0.3,0.1
		c-0.1,0-0.2,0.1-0.3,0.2c-0.1,0.1-0.2,0.2-0.3,0.3c-0.1,0.1-0.1,0.3-0.2,0.4c0,0.1,0,0.2,0,0.3c0,0.1,0.1,0.2,0.1,0.3
		c0.1,0.1,0.1,0.2,0.2,0.2c0.1,0,0.2,0.1,0.2,0.1c0.1,0,0.1,0,0.2,0c0.1,0,0.1,0,0.2,0c0,0,0.1,0,0.1,0c0,0,0,0,0,0s0,0,0,0
		C174.3,51.6,174.3,51.6,174.2,51.7C174.3,51.6,174.3,51.6,174.2,51.7z"/>
	<path class="st22" d="M176.2,52C176.2,52.1,176.2,52.1,176.2,52c-0.1,0.1-0.2,0.1-0.2,0.1l-1-0.6c0,0.1-0.1,0.2-0.1,0.2
		c0,0.1,0,0.2,0,0.2c0,0.1,0,0.1,0.1,0.2c0,0.1,0.1,0.1,0.2,0.2c0.1,0,0.1,0.1,0.2,0.1c0.1,0,0.1,0,0.2,0c0,0,0.1,0,0.1,0
		c0,0,0.1,0,0.1,0c0,0,0,0,0,0c0,0,0,0,0,0s0,0,0,0c0,0,0,0,0,0.1c0,0,0,0,0,0c0,0,0,0,0,0c0,0,0,0,0,0s0,0,0,0s0,0-0.1,0
		c0,0-0.1,0-0.1,0c-0.1,0-0.1,0-0.2-0.1c-0.1,0-0.1-0.1-0.2-0.1c-0.1-0.1-0.2-0.2-0.3-0.2c-0.1-0.1-0.1-0.2-0.1-0.3
		c0-0.1,0-0.2,0-0.3c0-0.1,0.1-0.3,0.2-0.4c0.1-0.1,0.2-0.2,0.3-0.3c0.1-0.1,0.2-0.1,0.3-0.2c0.1,0,0.2,0,0.3,0
		c0.1,0,0.2,0.1,0.3,0.1c0.1,0.1,0.2,0.1,0.3,0.2s0.1,0.2,0.1,0.3c0,0.1,0,0.2,0,0.3C176.3,51.8,176.3,51.9,176.2,52L176.2,52z
		 M176,51.8c0.1-0.1,0.1-0.3,0.1-0.4c0-0.1-0.1-0.2-0.2-0.3c-0.1,0-0.1-0.1-0.2-0.1c-0.1,0-0.1,0-0.2,0c-0.1,0-0.1,0.1-0.2,0.1
		c-0.1,0-0.1,0.1-0.1,0.2L176,51.8z"/>
	<path class="st22" d="M177.9,52.2C177.9,52.2,177.8,52.3,177.9,52.2C177.8,52.3,177.8,52.3,177.9,52.2c-0.1,0.1-0.1,0.1-0.1,0.1
		c0,0,0,0,0,0c0,0,0,0,0,0s0,0,0,0c0,0,0,0,0,0c0,0,0,0-0.1,0c0,0-0.1,0-0.1,0s-0.1,0-0.1,0c0,0-0.1,0-0.2,0c-0.1,0-0.1,0.1-0.2,0.1
		l-0.6,1c0,0,0,0,0,0c0,0,0,0,0,0c0,0,0,0,0,0c0,0,0,0-0.1,0c0,0,0,0-0.1,0c0,0,0,0,0,0c0,0,0,0,0,0c0,0,0,0,0,0l0.9-1.5
		c0,0,0,0,0,0c0,0,0,0,0,0c0,0,0,0,0,0c0,0,0,0,0.1,0c0,0,0,0,0.1,0s0,0,0,0c0,0,0,0,0,0c0,0,0,0,0,0l-0.1,0.2
		c0.1,0,0.1-0.1,0.2-0.1s0.1,0,0.2,0c0,0,0.1,0,0.1,0s0.1,0,0.1,0c0,0,0,0,0,0c0,0,0,0,0.1,0c0,0,0,0,0,0s0,0,0,0c0,0,0,0,0,0
		S177.9,52.1,177.9,52.2C177.9,52.1,177.9,52.1,177.9,52.2C177.9,52.2,177.9,52.2,177.9,52.2z"/>
	<path class="st22" d="M178.2,54.2C178.2,54.2,178.2,54.2,178.2,54.2c-0.1,0.1-0.1,0.1-0.1,0.1c0,0,0,0-0.1,0s0,0-0.1,0
		c0,0-0.1,0-0.1,0c0,0-0.1,0-0.1,0c-0.1,0-0.1-0.1-0.2-0.1s-0.1-0.1-0.1-0.2c0-0.1,0-0.1,0-0.2s0.1-0.2,0.1-0.2l0.5-0.9l-0.2-0.1
		c0,0,0,0,0-0.1s0-0.1,0-0.1c0,0,0,0,0-0.1s0,0,0,0s0,0,0,0s0,0,0,0l0.2,0.1l0.2-0.4c0,0,0,0,0,0s0,0,0,0c0,0,0,0,0,0s0,0,0.1,0
		c0,0,0.1,0,0.1,0s0,0,0,0s0,0,0,0s0,0,0,0l-0.2,0.4l0.4,0.2c0,0,0,0,0,0c0,0,0,0,0,0c0,0,0,0,0,0c0,0,0,0,0,0.1c0,0,0,0.1-0.1,0.1
		c0,0,0,0-0.1,0l-0.4-0.2l-0.5,0.8c-0.1,0.1-0.1,0.2-0.1,0.3s0,0.1,0.1,0.2c0,0,0.1,0,0.1,0s0,0,0.1,0c0,0,0,0,0.1,0c0,0,0,0,0,0
		c0,0,0,0,0,0C178.3,54.1,178.3,54.1,178.2,54.2C178.3,54.1,178.3,54.1,178.2,54.2C178.2,54.1,178.2,54.1,178.2,54.2z"/>
	<path class="st22" d="M180.3,54.4C180.2,54.4,180.2,54.5,180.3,54.4c-0.1,0.1-0.2,0.1-0.2,0.1l-1-0.6c0,0.1-0.1,0.2-0.1,0.2
		c0,0.1,0,0.2,0,0.2c0,0.1,0,0.1,0.1,0.2c0,0.1,0.1,0.1,0.2,0.2c0.1,0,0.1,0.1,0.2,0.1c0.1,0,0.1,0,0.2,0c0,0,0.1,0,0.1,0
		c0,0,0.1,0,0.1,0c0,0,0,0,0,0c0,0,0,0,0,0c0,0,0,0,0,0c0,0,0,0,0,0.1c0,0,0,0,0,0c0,0,0,0,0,0c0,0,0,0,0,0c0,0,0,0,0,0
		c0,0,0,0-0.1,0c0,0-0.1,0-0.1,0c-0.1,0-0.1,0-0.2-0.1c-0.1,0-0.1-0.1-0.2-0.1c-0.1-0.1-0.2-0.2-0.3-0.2c-0.1-0.1-0.1-0.2-0.1-0.3
		c0-0.1,0-0.2,0-0.3s0.1-0.3,0.2-0.4c0.1-0.1,0.2-0.2,0.3-0.3c0.1-0.1,0.2-0.1,0.3-0.2c0.1,0,0.2,0,0.3,0c0.1,0,0.2,0.1,0.3,0.1
		c0.1,0.1,0.2,0.1,0.3,0.2c0.1,0.1,0.1,0.2,0.1,0.3c0,0.1,0,0.2,0,0.3C180.4,54.1,180.4,54.2,180.3,54.4L180.3,54.4z M180,54.1
		c0.1-0.1,0.1-0.3,0.1-0.4s-0.1-0.2-0.2-0.3c-0.1,0-0.1-0.1-0.2-0.1c-0.1,0-0.1,0-0.2,0c-0.1,0-0.1,0.1-0.2,0.1
		c-0.1,0-0.1,0.1-0.1,0.2L180,54.1z"/>
</g>
</svg>
